G04 Layer: TopSilkscreenLayer*
G04 EasyEDA Pro v2.2.45.4, 2026-05-14 13:08:14*
G04 Gerber Generator version 0.3*
G04 Scale: 100 percent, Rotated: No, Reflected: No*
G04 Dimensions in millimeters*
G04 Leading zeros omitted, absolute positions, 4 integers and 5 decimals*
G04 Generated by one-click*
%FSLAX45Y45*%
%MOMM*%
%ADD10C,0.254*%
%ADD11C,0.1524*%
%ADD12C,0.1508*%
G75*


G04 Text Start*
G36*
G01X292058Y769600D02*
G01X56300Y769600D01*
G01X56300Y827479D01*
G01X61755Y827479D01*
G01X61906Y826418D01*
G01X62209Y822479D01*
G01X62512Y820358D01*
G01X62815Y819145D01*
G01X63724Y815812D01*
G01X64179Y814600D01*
G01X65088Y812479D01*
G01X66300Y810055D01*
G01X66906Y808994D01*
G01X67664Y807782D01*
G01X68573Y806418D01*
G01X69482Y805358D01*
G01X70694Y803842D01*
G01X71452Y803085D01*
G01X72361Y801873D01*
G01X73421Y800812D01*
G01X74634Y799903D01*
G01X75694Y798842D01*
G01X76452Y798236D01*
G01X77209Y797782D01*
G01X78270Y797024D01*
G01X80997Y795206D01*
G01X83724Y793842D01*
G01X84785Y793388D01*
G01X85997Y792933D01*
G01X87361Y792479D01*
G01X88573Y792024D01*
G01X89634Y791721D01*
G01X90694Y791570D01*
G01X92209Y791115D01*
G01X94027Y790812D01*
G01X95240Y790661D01*
G01X95240Y790661D01*
G01X96452Y790358D01*
G01X102209Y790206D01*
G01X107664Y790358D01*
G01X110391Y790661D01*
G01X112058Y790964D01*
G01X113876Y791418D01*
G01X115694Y792024D01*
G01X152058Y792024D01*
G01X159633Y792024D01*
G01X159633Y818842D01*
G01X159747Y838918D01*
G01X160088Y845509D01*
G01X160846Y844903D01*
G01X161755Y843691D01*
G01X162815Y842630D01*
G01X164330Y840812D01*
G01X166149Y838691D01*
G01X166906Y837933D01*
G01X167815Y836721D01*
G01X168876Y835661D01*
G01X170391Y833842D01*
G01X171149Y833085D01*
G01X172058Y831873D01*
G01X173118Y830812D01*
G01X174634Y828994D01*
G01X176452Y826873D01*
G01X177209Y826115D01*
G01X178118Y824903D01*
G01X179179Y823842D01*
G01X180694Y822024D01*
G01X181452Y821267D01*
G01X182361Y820054D01*
G01X183421Y818994D01*
G01X184937Y817176D01*
G01X186755Y815055D01*
G01X187512Y814297D01*
G01X188422Y813085D01*
G01X189482Y812024D01*
G01X190997Y810206D01*
G01X191755Y809448D01*
G01X192664Y808236D01*
G01X193725Y807176D01*
G01X194937Y805661D01*
G01X195694Y804903D01*
G01X196603Y803691D01*
G01X197664Y802630D01*
G01X199179Y800812D01*
G01X199937Y800055D01*
G01X200846Y798842D01*
G01X201906Y797782D01*
G01X203421Y795964D01*
G01X205240Y793842D01*
G01X206755Y792327D01*
G01X207967Y792024D01*
G01X208725Y792024D01*
G01X225997Y792024D01*
G01X240543Y792024D01*
G01X255543Y792176D01*
G01X258573Y792479D01*
G01X260694Y792782D01*
G01X262209Y793085D01*
G01X263876Y793539D01*
G01X265391Y793994D01*
G01X266755Y794449D01*
G01X268876Y795358D01*
G01X271300Y796570D01*
G01X272209Y797176D01*
G01X274330Y798691D01*
G01X278118Y802479D01*
G01X279937Y804903D01*
G01X280694Y805964D01*
G01X281452Y807327D01*
G01X282664Y809448D01*
G01X283876Y812176D01*
G01X284482Y813842D01*
G01X285088Y815812D01*
G01X285543Y817933D01*
G01X285846Y819448D01*
G01X286149Y821267D01*
G01X286300Y823236D01*
G01X286452Y824297D01*
G01X286603Y827479D01*
G01X286452Y830661D01*
G01X286149Y833691D01*
G01X285543Y837024D01*
G01X285088Y838539D01*
G01X284482Y840509D01*
G01X283876Y842176D01*
G01X283270Y843691D01*
G01X282058Y846115D01*
G01X281452Y847176D01*
G01X280846Y848085D01*
G01X280088Y849297D01*
G01X279331Y850357D01*
G01X278118Y851873D01*
G01X275088Y854903D01*
G01X274179Y855660D01*
G01X273270Y856267D01*
G01X272512Y856873D01*
G01X271603Y857479D01*
G01X270391Y858236D01*
G01X266452Y860206D01*
G01X264785Y860812D01*
G01X262058Y861721D01*
G01X259936Y862176D01*
G01X258270Y862479D01*
G01X256149Y862782D01*
G01X253421Y863085D01*
G01X249785Y863388D01*
G01X237664Y863539D01*
G01X225997Y863539D01*
G01X225997Y863539D01*
G01X225997Y792024D01*
G01X208725Y792024D01*
G01X208725Y863539D01*
G01X201452Y863539D01*
G01X201452Y836418D01*
G01X201338Y816115D01*
G01X200997Y809448D01*
G01X200240Y810055D01*
G01X199482Y810812D01*
G01X198270Y812327D01*
G01X196452Y814448D01*
G01X195694Y815206D01*
G01X194785Y816418D01*
G01X193725Y817479D01*
G01X192512Y818994D01*
G01X191755Y819751D01*
G01X190846Y820964D01*
G01X189785Y822024D01*
G01X188573Y823539D01*
G01X187815Y824297D01*
G01X186906Y825509D01*
G01X185846Y826570D01*
G01X184331Y828388D01*
G01X182512Y830509D01*
G01X181755Y831267D01*
G01X180846Y832479D01*
G01X179785Y833539D01*
G01X178573Y835054D01*
G01X177815Y835812D01*
G01X176906Y837024D01*
G01X175846Y838085D01*
G01X174634Y839600D01*
G01X173876Y840357D01*
G01X172967Y841570D01*
G01X171906Y842630D01*
G01X170694Y844145D01*
G01X169937Y844903D01*
G01X168724Y846418D01*
G01X167967Y847176D01*
G01X166452Y848994D01*
G01X164633Y851115D01*
G01X163876Y851873D01*
G01X162967Y853085D01*
G01X161906Y854145D01*
G01X160694Y855660D01*
G01X159936Y856418D01*
G01X159027Y857630D01*
G01X157967Y858691D01*
G01X156755Y860206D01*
G01X155997Y860964D01*
G01X155088Y862176D01*
G01X153876Y863236D01*
G01X152664Y863539D01*
G01X152209Y854600D01*
G01X152209Y854600D01*
G01X152058Y827782D01*
G01X152058Y792024D01*
G01X115694Y792024D01*
G01X116603Y792327D01*
G01X117815Y792782D01*
G01X118876Y793236D01*
G01X122512Y795055D01*
G01X123573Y795812D01*
G01X124330Y796418D01*
G01X125088Y796873D01*
G01X127361Y798691D01*
G01X128876Y800206D01*
G01X130391Y802024D01*
G01X131300Y803085D01*
G01X132361Y804600D01*
G01X133270Y806115D01*
G01X134027Y807479D01*
G01X134785Y808994D01*
G01X135997Y811721D01*
G01X136452Y813388D01*
G01X136906Y814751D01*
G01X137209Y815964D01*
G01X137361Y817024D01*
G01X137664Y818236D01*
G01X137967Y820358D01*
G01X138118Y822327D01*
G01X138270Y823388D01*
G01X138421Y825054D01*
G01X138421Y826267D01*
G01X107512Y826267D01*
G01X107512Y819297D01*
G01X130240Y819297D01*
G01X130240Y818539D01*
G01X130088Y817327D01*
G01X129633Y815812D01*
G01X129027Y813842D01*
G01X128421Y812176D01*
G01X127815Y810964D01*
G01X127058Y809751D01*
G01X126149Y808236D01*
G01X125240Y807176D01*
G01X124027Y805661D01*
G01X122512Y804145D01*
G01X120997Y802933D01*
G01X119937Y802176D01*
G01X118573Y801267D01*
G01X117058Y800358D01*
G01X115543Y799600D01*
G01X114027Y798994D01*
G01X112361Y798388D01*
G01X110391Y797933D01*
G01X108876Y797630D01*
G01X107664Y797327D01*
G01X106149Y797176D01*
G01X104937Y797024D01*
G01X101603Y796873D01*
G01X98270Y797024D01*
G01X96149Y797327D01*
G01X94634Y797630D01*
G01X92967Y798085D01*
G01X89937Y798994D01*
G01X87209Y800206D01*
G01X85846Y800964D01*
G01X82815Y802782D01*
G01X81755Y803539D01*
G01X80997Y804145D01*
G01X80240Y804903D01*
G01X78724Y806115D01*
G01X77967Y806873D01*
G01X75694Y809600D01*
G01X75088Y810509D01*
G01X74330Y811570D01*
G01X73573Y812782D01*
G01X72361Y815206D01*
G01X71755Y816570D01*
G01X70543Y819903D01*
G01X70088Y822024D01*
G01X69785Y823691D01*
G01X69482Y826721D01*
G01X69330Y828388D01*
G01X69482Y830054D01*
G01X69785Y833085D01*
G01X70088Y834600D01*
G01X70543Y836267D01*
G01X71149Y837782D01*
G01X71755Y839448D01*
G01X73573Y843085D01*
G01X74330Y844297D01*
G01X75088Y845357D01*
G01X75694Y846115D01*
G01X76603Y847327D01*
G01X79179Y849903D01*
G01X80391Y850812D01*
G01X81452Y851721D01*
G01X82361Y852327D01*
G01X84785Y853842D01*
G01X85997Y854448D01*
G01X87361Y855054D01*
G01X88573Y855660D01*
G01X89937Y856267D01*
G01X91755Y856873D01*
G01X93421Y857327D01*
G01X96452Y857933D01*
G01X97815Y858085D01*
G01X98876Y858236D01*
G01X101755Y858388D01*
G01X104634Y858236D01*
G01X107058Y857933D01*
G01X108573Y857630D01*
G01X110240Y857176D01*
G01X113270Y856267D01*
G01X114785Y855660D01*
G01X116149Y855054D01*
G01X118270Y854145D01*
G01X119482Y853388D01*
G01X120997Y852479D01*
G01X122209Y851721D01*
G01X125846Y848994D01*
G01X127664Y847176D01*
G01X128421Y846570D01*
G01X128724Y846456D01*
G01X129027Y846721D01*
G01X132058Y849751D01*
G01X133118Y850660D01*
G01X133876Y851570D01*
G01X133421Y852327D01*
G01X132209Y853236D01*
G01X131149Y854297D01*
G01X130240Y855054D01*
G01X128876Y855964D01*
G01X127664Y856873D01*
G01X126603Y857630D01*
G01X125240Y858539D01*
G01X123724Y859448D01*
G01X122361Y860206D01*
G01X121149Y860812D01*
G01X119785Y861418D01*
G01X118573Y862024D01*
G01X114937Y863388D01*
G01X113724Y863691D01*
G01X112209Y864145D01*
G01X110088Y864600D01*
G01X107967Y864903D01*
G01X105543Y865206D01*
G01X100088Y865358D01*
G01X95543Y865206D01*
G01X93421Y864903D01*
G01X91906Y864600D01*
G01X89937Y864145D01*
G01X88270Y863691D01*
G01X84634Y862327D01*
G01X81906Y861115D01*
G01X80694Y860357D01*
G01X79179Y859448D01*
G01X77967Y858691D01*
G01X75543Y856873D01*
G01X74179Y855509D01*
G01X73118Y854751D01*
G01X72058Y853691D01*
G01X69633Y850660D01*
G01X68724Y849448D01*
G01X67815Y848085D01*
G01X67209Y847024D01*
G01X66603Y845812D01*
G01X65997Y844751D01*
G01X65391Y843539D01*
G01X64785Y842176D01*
G01X64330Y841115D01*
G01X63876Y839903D01*
G01X63421Y838388D01*
G01X63118Y837024D01*
G01X62815Y835812D01*
G01X62512Y834297D01*
G01X62209Y832479D01*
G01X62058Y830206D01*
G01X61906Y828539D01*
G01X61755Y827479D01*
G01X56300Y827479D01*
G01X56300Y888691D01*
G01X292058Y888691D01*
G01X292058Y769600D01*
G37*
G36*
G01X241149Y798691D02*
G01X233118Y798842D01*
G01X232967Y827782D01*
G01X232967Y856570D01*
G01X240088Y856570D01*
G01X247664Y856418D01*
G01X251906Y856115D01*
G01X254633Y855812D01*
G01X256755Y855509D01*
G01X259482Y854903D01*
G01X260846Y854448D01*
G01X262512Y853842D01*
G01X264027Y853236D01*
G01X265240Y852630D01*
G01X266300Y852024D01*
G01X267512Y851267D01*
G01X268573Y850509D01*
G01X269785Y849600D01*
G01X272361Y847024D01*
G01X273270Y845812D01*
G01X274330Y844297D01*
G01X275846Y841873D01*
G01X276603Y840206D01*
G01X277209Y838842D01*
G01X277664Y837479D01*
G01X277967Y836115D01*
G01X278421Y834600D01*
G01X278876Y832176D01*
G01X279179Y829448D01*
G01X279331Y825964D01*
G01X279179Y823388D01*
G01X278876Y820661D01*
G01X278573Y819145D01*
G01X278118Y817479D01*
G01X277209Y814751D01*
G01X276603Y813388D01*
G01X275997Y812176D01*
G01X275391Y811115D01*
G01X274634Y809903D01*
G01X273876Y808842D01*
G01X272967Y807630D01*
G01X271149Y805812D01*
G01X269330Y804297D01*
G01X268573Y803691D01*
G01X267664Y803236D01*
G01X266452Y802479D01*
G01X264936Y801721D01*
G01X263573Y801115D01*
G01X262209Y800661D01*
G01X260997Y800358D01*
G01X259482Y799903D01*
G01X257815Y799600D01*
G01X256755Y799448D01*
G01X253724Y799145D01*
G01X249482Y798842D01*
G01X241149Y798691D01*
G37*
G36*
G01X214200Y34100D02*
G01X400564Y34100D01*
G01X400564Y153191D01*
G01X214200Y153191D01*
G01X214200Y88949D01*
G01X219655Y88949D01*
G01X219655Y95615D01*
G01X240867Y95615D01*
G01X240867Y105464D01*
G01X241018Y116070D01*
G01X241170Y116827D01*
G01X243746Y116827D01*
G01X247079Y116676D01*
G01X247836Y116524D01*
G01X247836Y95615D01*
G01X269048Y95615D01*
G01X269048Y88949D01*
G01X247836Y88949D01*
G01X247836Y79100D01*
G01X247752Y73191D01*
G01X278745Y73191D01*
G01X279579Y73646D01*
G01X282079Y73797D01*
G01X285867Y73494D01*
G01X286473Y72282D01*
G01X286927Y70767D01*
G01X287533Y69403D01*
G01X288139Y68191D01*
G01X288745Y67130D01*
G01X289503Y66221D01*
G01X291018Y64706D01*
G01X292079Y63949D01*
G01X293291Y63191D01*
G01X294503Y62585D01*
G01X296018Y61979D01*
G01X297382Y61524D01*
G01X300109Y61221D01*
G01X301018Y61221D01*
G01X303745Y61524D01*
G01X304806Y61676D01*
G01X306018Y61979D01*
G01X307230Y62433D01*
G01X308139Y62888D01*
G01X309200Y63494D01*
G01X310715Y64403D01*
G01X311927Y65312D01*
G01X314200Y67585D01*
G01X314958Y68646D01*
G01X315715Y69858D01*
G01X316321Y70918D01*
G01X317230Y73039D01*
G01X317685Y74403D01*
G01X317988Y75767D01*
G01X318291Y79100D01*
G01X318291Y79858D01*
G01X318139Y81373D01*
G01X317988Y83039D01*
G01X317685Y84555D01*
G01X317230Y86221D01*
G01X316624Y87585D01*
G01X316018Y88797D01*
G01X315261Y90009D01*
G01X314352Y91070D01*
G01X312533Y92888D01*
G01X311321Y93797D01*
G01X310412Y94403D01*
G01X308291Y95312D01*
G01X307079Y95767D01*
G01X305867Y96070D01*
G01X302230Y96373D01*
G01X301473Y96373D01*
G01X299806Y96221D01*
G01X297988Y96070D01*
G01X294958Y95464D01*
G01X293745Y95161D01*
G01X292079Y94706D01*
G01X290261Y94100D01*
G01X288594Y93494D01*
G01X287079Y92888D01*
G01X286321Y92888D01*
G01X286473Y94252D01*
G01X286776Y95767D01*
G01X287382Y99100D01*
G01X287685Y100615D01*
G01X287988Y102433D01*
G01X288594Y105464D01*
G01X288897Y107282D01*
G01X289200Y108797D01*
G01X289806Y112130D01*
G01X290109Y113645D01*
G01X290412Y115464D01*
G01X291018Y118494D01*
G01X291321Y120312D01*
G01X291624Y121827D01*
G01X292533Y126827D01*
G01X292685Y128039D01*
G01X323897Y128039D01*
G01X333594Y128039D01*
G01X336776Y128039D01*
G01X340715Y127888D01*
G01X341321Y127623D01*
G01X341624Y127130D01*
G01X356624Y92130D01*
G01X357836Y89403D01*
G01X363291Y76676D01*
G01X364503Y73949D01*
G01X364844Y73683D01*
G01X365261Y73797D01*
G01X365867Y74706D01*
G01X366321Y75767D01*
G01X367533Y78494D01*
G01X368442Y80615D01*
G01X369655Y83342D01*
G01X370564Y85464D01*
G01X371776Y88191D01*
G01X373594Y92433D01*
G01X374806Y95161D01*
G01X375715Y97282D01*
G01X376927Y100009D01*
G01X377836Y102130D01*
G01X379049Y104858D01*
G01X380867Y109100D01*
G01X382079Y111827D01*
G01X382988Y113948D01*
G01X384200Y116676D01*
G01X385109Y118797D01*
G01X386321Y121524D01*
G01X388139Y125767D01*
G01X388745Y127130D01*
G01X389048Y128039D01*
G01X392988Y128039D01*
G01X395867Y127926D01*
G01X396624Y127585D01*
G01X395412Y124858D01*
G01X393594Y120615D01*
G01X392382Y117888D01*
G01X390564Y113645D01*
G01X389352Y110918D01*
G01X387533Y106676D01*
G01X386321Y103948D01*
G01X383594Y97585D01*
G01X382988Y96373D01*
G01X382382Y94858D01*
G01X379958Y89403D01*
G01X379352Y87888D01*
G01X376927Y82433D01*
G01X376321Y80918D01*
G01X373897Y75464D01*
G01X373291Y73949D01*
G01X370867Y68494D01*
G01X370261Y66979D01*
G01X367836Y61524D01*
G01X367230Y60009D01*
G01X366018Y57282D01*
G01X365564Y56714D01*
G01X364806Y56524D01*
G01X363897Y56827D01*
G01X363897Y56827D01*
G01X363594Y57585D01*
G01X342685Y106373D01*
G01X341473Y109100D01*
G01X334200Y126070D01*
G01X333746Y127282D01*
G01X333594Y128039D01*
G01X323897Y128039D01*
G01X323897Y121373D01*
G01X311170Y121373D01*
G01X298291Y121070D01*
G01X297988Y120312D01*
G01X295564Y106979D01*
G01X294958Y103948D01*
G01X294806Y102888D01*
G01X295109Y102130D01*
G01X295867Y102130D01*
G01X298897Y102736D01*
G01X301018Y103039D01*
G01X302836Y103191D01*
G01X304654Y103039D01*
G01X305867Y102888D01*
G01X307382Y102736D01*
G01X309806Y102130D01*
G01X311321Y101676D01*
G01X312836Y101070D01*
G01X314048Y100464D01*
G01X315109Y99858D01*
G01X316018Y99252D01*
G01X317079Y98494D01*
G01X318139Y97585D01*
G01X320412Y95312D01*
G01X321321Y94252D01*
G01X322230Y92888D01*
G01X322988Y91524D01*
G01X323594Y90312D01*
G01X324200Y88797D01*
G01X324806Y86676D01*
G01X325261Y85161D01*
G01X325564Y82433D01*
G01X325715Y80615D01*
G01X325564Y78797D01*
G01X325412Y77736D01*
G01X325261Y75767D01*
G01X324806Y73343D01*
G01X324200Y71221D01*
G01X323594Y69403D01*
G01X322382Y66979D01*
G01X321624Y65615D01*
G01X321018Y64555D01*
G01X320412Y63797D01*
G01X318594Y61676D01*
G01X317836Y60918D01*
G01X316321Y59706D01*
G01X315261Y58797D01*
G01X314048Y58040D01*
G01X311018Y56524D01*
G01X309351Y55918D01*
G01X307988Y55464D01*
G01X304957Y54858D01*
G01X300867Y54706D01*
G01X297079Y54858D01*
G01X297079Y54858D01*
G01X295715Y55161D01*
G01X293897Y55615D01*
G01X292533Y56070D01*
G01X291321Y56524D01*
G01X290109Y57130D01*
G01X288745Y57888D01*
G01X287533Y58646D01*
G01X286624Y59403D01*
G01X285564Y60312D01*
G01X284200Y61524D01*
G01X282988Y63039D01*
G01X281927Y64555D01*
G01X281170Y65767D01*
G01X280564Y66979D01*
G01X279958Y68494D01*
G01X279503Y69706D01*
G01X278897Y72130D01*
G01X278745Y73191D01*
G01X247752Y73191D01*
G01X247685Y68494D01*
G01X247533Y67736D01*
G01X244352Y67736D01*
G01X241018Y67888D01*
G01X241018Y67888D01*
G01X240867Y78494D01*
G01X240867Y88949D01*
G01X219655Y88949D01*
G01X214200Y88949D01*
G01X214200Y34100D01*
G37*
G36*
G01X753364Y940000D02*
G01X637000Y940000D01*
G01X637000Y962424D01*
G01X646091Y962424D01*
G01X653061Y962424D01*
G01X653061Y995757D01*
G01X655182Y995757D01*
G01X656849Y995606D01*
G01X657606Y995151D01*
G01X658212Y994242D01*
G01X660030Y991970D01*
G01X660939Y990757D01*
G01X662152Y989242D01*
G01X663061Y988030D01*
G01X664273Y986515D01*
G01X666091Y984091D01*
G01X667303Y982576D01*
G01X668212Y981364D01*
G01X669424Y979848D01*
G01X670333Y978636D01*
G01X671546Y977121D01*
G01X673364Y974697D01*
G01X674576Y973182D01*
G01X675485Y971970D01*
G01X676697Y970454D01*
G01X677606Y969242D01*
G01X678818Y967727D01*
G01X679727Y966515D01*
G01X680939Y965000D01*
G01X681849Y963788D01*
G01X682606Y962879D01*
G01X684008Y962538D01*
G01X687303Y962424D01*
G01X690447Y962538D01*
G01X691394Y962879D01*
G01X690939Y963636D01*
G01X689121Y965909D01*
G01X688212Y967121D01*
G01X687000Y968636D01*
G01X686091Y969848D01*
G01X684879Y971364D01*
G01X683970Y972576D01*
G01X682758Y974091D01*
G01X680939Y976515D01*
G01X679727Y978030D01*
G01X678818Y979242D01*
G01X677606Y980758D01*
G01X676697Y981970D01*
G01X675485Y983485D01*
G01X674576Y984697D01*
G01X673364Y986212D01*
G01X671546Y988636D01*
G01X670333Y990151D01*
G01X669424Y991364D01*
G01X668212Y992879D01*
G01X667303Y994091D01*
G01X666697Y994848D01*
G01X666546Y995454D01*
G01X669121Y995757D01*
G01X672000Y995909D01*
G01X674424Y996212D01*
G01X677152Y996818D01*
G01X678515Y997273D01*
G01X680182Y997879D01*
G01X681394Y998485D01*
G01X682455Y999091D01*
G01X683364Y999697D01*
G01X685636Y1001515D01*
G01X686545Y1002576D01*
G01X687606Y1004091D01*
G01X688515Y1005606D01*
G01X689121Y1006818D01*
G01X689727Y1008182D01*
G01X690182Y1009848D01*
G01X690485Y1011363D01*
G01X690636Y1012727D01*
G01X690788Y1013788D01*
G01X690939Y1015606D01*
G01X690788Y1017424D01*
G01X690485Y1019545D01*
G01X690030Y1021060D01*
G01X689424Y1022727D01*
G01X688818Y1023939D01*
G01X688061Y1025151D01*
G01X687303Y1026212D01*
G01X686507Y1027273D01*
G01X712151Y1027273D01*
G01X717606Y1026970D01*
G01X723061Y1026970D01*
G01X723061Y1026970D01*
G01X723061Y962424D01*
G01X730030Y962424D01*
G01X730030Y1033939D01*
G01X722909Y1033939D01*
G01X717530Y1033788D01*
G01X715636Y1033333D01*
G01X715182Y1032424D01*
G01X714424Y1031364D01*
G01X712606Y1028333D01*
G01X712151Y1027273D01*
G01X686507Y1027273D01*
G01X686394Y1027424D01*
G01X685333Y1028485D01*
G01X682909Y1030303D01*
G01X682000Y1030909D01*
G01X679879Y1031818D01*
G01X678515Y1032424D01*
G01X676697Y1032879D01*
G01X675333Y1033182D01*
G01X673818Y1033485D01*
G01X671849Y1033636D01*
G01X670485Y1033788D01*
G01X658061Y1033939D01*
G01X646091Y1033939D01*
G01X646091Y1033939D01*
G01X646091Y962424D01*
G01X637000Y962424D01*
G01X637000Y1059091D01*
G01X753364Y1059091D01*
G01X753364Y940000D01*
G37*
G36*
G01X665636Y1002576D02*
G01X664576Y1002576D01*
G01X658515Y1002727D01*
G01X653061Y1002727D01*
G01X653061Y1026970D01*
G01X662455Y1026970D01*
G01X672303Y1026818D01*
G01X675636Y1026212D01*
G01X676849Y1025757D01*
G01X678364Y1024848D01*
G01X679576Y1023939D01*
G01X680333Y1023182D01*
G01X681091Y1022121D01*
G01X682000Y1020757D01*
G01X682606Y1019394D01*
G01X682909Y1018333D01*
G01X683212Y1017121D01*
G01X683364Y1014394D01*
G01X683212Y1011970D01*
G01X682758Y1010606D01*
G01X682152Y1009242D01*
G01X681546Y1008182D01*
G01X680788Y1007273D01*
G01X679273Y1005757D01*
G01X678212Y1005000D01*
G01X676697Y1004242D01*
G01X675182Y1003636D01*
G01X673212Y1003182D01*
G01X671394Y1002879D01*
G01X665636Y1002576D01*
G37*
G36*
G01X1280364Y940000D02*
G01X1164000Y940000D01*
G01X1164000Y1033939D01*
G01X1173091Y1033939D01*
G01X1173091Y962424D01*
G01X1180061Y962424D01*
G01X1180061Y995757D01*
G01X1182182Y995757D01*
G01X1183849Y995606D01*
G01X1184606Y995151D01*
G01X1185212Y994242D01*
G01X1187030Y991970D01*
G01X1187939Y990757D01*
G01X1189152Y989242D01*
G01X1190061Y988030D01*
G01X1191273Y986515D01*
G01X1193091Y984091D01*
G01X1194303Y982576D01*
G01X1195212Y981364D01*
G01X1196424Y979848D01*
G01X1197333Y978636D01*
G01X1198545Y977121D01*
G01X1200364Y974697D01*
G01X1201576Y973182D01*
G01X1202485Y971970D01*
G01X1203697Y970454D01*
G01X1204606Y969242D01*
G01X1205818Y967727D01*
G01X1206727Y966515D01*
G01X1207939Y965000D01*
G01X1208848Y963788D01*
G01X1209606Y962879D01*
G01X1211007Y962538D01*
G01X1214303Y962424D01*
G01X1217447Y962538D01*
G01X1217973Y962727D01*
G01X1227939Y962727D01*
G01X1233811Y962500D01*
G01X1252030Y962424D01*
G01X1276424Y962424D01*
G01X1276424Y969091D01*
G01X1259909Y969091D01*
G01X1247561Y969205D01*
G01X1243545Y969545D01*
G01X1244151Y970303D01*
G01X1244909Y971061D01*
G01X1246121Y972576D01*
G01X1249151Y975606D01*
G01X1250060Y976818D01*
G01X1252636Y979394D01*
G01X1254454Y981515D01*
G01X1256727Y983788D01*
G01X1257939Y985303D01*
G01X1260970Y988333D01*
G01X1261879Y989545D01*
G01X1262939Y990606D01*
G01X1264758Y992727D01*
G01X1265515Y993485D01*
G01X1266424Y994697D01*
G01X1268849Y997727D01*
G01X1269909Y999242D01*
G01X1270667Y1000303D01*
G01X1271273Y1001212D01*
G01X1271879Y1002273D01*
G01X1273091Y1004697D01*
G01X1273697Y1006060D01*
G01X1274303Y1007879D01*
G01X1274758Y1009848D01*
G01X1275061Y1011667D01*
G01X1275212Y1015000D01*
G01X1275061Y1018030D01*
G01X1274758Y1019545D01*
G01X1274303Y1021212D01*
G01X1273697Y1022727D01*
G01X1273091Y1024091D01*
G01X1272333Y1025303D01*
G01X1271424Y1026818D01*
G01X1268697Y1030000D01*
G01X1267939Y1030757D01*
G01X1267182Y1031364D01*
G01X1266424Y1031818D01*
G01X1265364Y1032576D01*
G01X1264000Y1033333D01*
G01X1261273Y1034545D01*
G01X1259606Y1035000D01*
G01X1256576Y1035606D01*
G01X1252485Y1035758D01*
G01X1249000Y1035606D01*
G01X1247485Y1035303D01*
G01X1245818Y1034848D01*
G01X1244454Y1034394D01*
G01X1243242Y1033939D01*
G01X1242030Y1033333D01*
G01X1240667Y1032576D01*
G01X1239606Y1031818D01*
G01X1238394Y1030909D01*
G01X1237333Y1030000D01*
G01X1236576Y1029242D01*
G01X1235818Y1028333D01*
G01X1235061Y1027576D01*
G01X1234303Y1026667D01*
G01X1233697Y1025757D01*
G01X1232939Y1024697D01*
G01X1231576Y1021970D01*
G01X1230970Y1020606D01*
G01X1230364Y1018788D01*
G01X1229909Y1016818D01*
G01X1229606Y1015000D01*
G01X1229454Y1013485D01*
G01X1229303Y1012273D01*
G01X1230061Y1011932D01*
G01X1232636Y1011818D01*
G01X1235250Y1011970D01*
G01X1236121Y1012424D01*
G01X1236576Y1015606D01*
G01X1237030Y1017121D01*
G01X1237636Y1018939D01*
G01X1238242Y1020454D01*
G01X1238848Y1021515D01*
G01X1239606Y1022576D01*
G01X1240515Y1023636D01*
G01X1242030Y1025151D01*
G01X1242788Y1025757D01*
G01X1243848Y1026515D01*
G01X1245364Y1027424D01*
G01X1247182Y1028182D01*
G01X1249000Y1028636D01*
G01X1250818Y1028939D01*
G01X1253545Y1029091D01*
G01X1255667Y1028939D01*
G01X1257030Y1028636D01*
G01X1258545Y1028182D01*
G01X1259909Y1027576D01*
G01X1261273Y1026818D01*
G01X1262333Y1026060D01*
G01X1263848Y1024848D01*
G01X1264758Y1023788D01*
G01X1266273Y1021666D01*
G01X1267030Y1020151D01*
G01X1267636Y1018788D01*
G01X1268091Y1016818D01*
G01X1268242Y1013485D01*
G01X1268091Y1011060D01*
G01X1267788Y1009697D01*
G01X1267333Y1008333D01*
G01X1266424Y1006212D01*
G01X1265818Y1005151D01*
G01X1265061Y1003939D01*
G01X1264303Y1002879D01*
G01X1262485Y1000454D01*
G01X1261273Y998939D01*
G01X1260515Y998182D01*
G01X1259303Y996667D01*
G01X1258545Y995909D01*
G01X1257333Y994394D01*
G01X1255818Y992879D01*
G01X1254606Y991364D01*
G01X1251727Y988485D01*
G01X1250970Y987424D01*
G01X1248394Y984848D01*
G01X1246576Y982727D01*
G01X1244303Y980454D01*
G01X1243394Y979242D01*
G01X1240818Y976667D01*
G01X1239000Y974545D01*
G01X1236727Y972273D01*
G01X1235515Y970758D01*
G01X1233242Y968485D01*
G01X1231424Y966364D01*
G01X1229151Y964091D01*
G01X1228545Y963333D01*
G01X1228545Y963333D01*
G01X1227939Y962727D01*
G01X1217973Y962727D01*
G01X1218394Y962879D01*
G01X1217939Y963636D01*
G01X1216121Y965909D01*
G01X1215212Y967121D01*
G01X1214000Y968636D01*
G01X1213091Y969848D01*
G01X1211879Y971364D01*
G01X1210970Y972576D01*
G01X1209758Y974091D01*
G01X1207939Y976515D01*
G01X1206727Y978030D01*
G01X1205818Y979242D01*
G01X1204606Y980758D01*
G01X1203697Y981970D01*
G01X1202485Y983485D01*
G01X1201576Y984697D01*
G01X1200364Y986212D01*
G01X1198545Y988636D01*
G01X1197333Y990151D01*
G01X1196424Y991364D01*
G01X1195212Y992879D01*
G01X1194303Y994091D01*
G01X1193697Y994848D01*
G01X1193545Y995454D01*
G01X1196121Y995757D01*
G01X1199000Y995909D01*
G01X1201424Y996212D01*
G01X1204152Y996818D01*
G01X1205515Y997273D01*
G01X1207182Y997879D01*
G01X1208394Y998485D01*
G01X1209455Y999091D01*
G01X1210364Y999697D01*
G01X1212636Y1001515D01*
G01X1213545Y1002576D01*
G01X1214606Y1004091D01*
G01X1215515Y1005606D01*
G01X1216121Y1006818D01*
G01X1216727Y1008182D01*
G01X1217182Y1009848D01*
G01X1217485Y1011363D01*
G01X1217636Y1012727D01*
G01X1217788Y1013788D01*
G01X1217939Y1015606D01*
G01X1217788Y1017424D01*
G01X1217485Y1019545D01*
G01X1217030Y1021060D01*
G01X1216424Y1022727D01*
G01X1215818Y1023939D01*
G01X1215061Y1025151D01*
G01X1214303Y1026212D01*
G01X1213394Y1027424D01*
G01X1212333Y1028485D01*
G01X1209909Y1030303D01*
G01X1209000Y1030909D01*
G01X1206879Y1031818D01*
G01X1205515Y1032424D01*
G01X1203697Y1032879D01*
G01X1202333Y1033182D01*
G01X1200818Y1033485D01*
G01X1198849Y1033636D01*
G01X1197485Y1033788D01*
G01X1185061Y1033939D01*
G01X1173091Y1033939D01*
G01X1173091Y1033939D01*
G01X1164000Y1033939D01*
G01X1164000Y1059091D01*
G01X1280364Y1059091D01*
G01X1280364Y940000D01*
G37*
G36*
G01X1192636Y1002576D02*
G01X1191576Y1002576D01*
G01X1185515Y1002727D01*
G01X1180061Y1002727D01*
G01X1180061Y1026970D01*
G01X1189455Y1026970D01*
G01X1199303Y1026818D01*
G01X1202636Y1026212D01*
G01X1203848Y1025757D01*
G01X1205364Y1024848D01*
G01X1206576Y1023939D01*
G01X1207333Y1023182D01*
G01X1208091Y1022121D01*
G01X1209000Y1020757D01*
G01X1209606Y1019394D01*
G01X1209909Y1018333D01*
G01X1210212Y1017121D01*
G01X1210364Y1014394D01*
G01X1210212Y1011970D01*
G01X1209758Y1010606D01*
G01X1209152Y1009242D01*
G01X1208545Y1008182D01*
G01X1207788Y1007273D01*
G01X1206273Y1005757D01*
G01X1205212Y1005000D01*
G01X1203697Y1004242D01*
G01X1202182Y1003636D01*
G01X1200212Y1003182D01*
G01X1198394Y1002879D01*
G01X1192636Y1002576D01*
G37*
G36*
G01X1485443Y650200D02*
G01X1231200Y650200D01*
G01X1231200Y744139D01*
G01X1239988Y744139D01*
G01X1239988Y719897D01*
G01X1240139Y695200D01*
G01X1240443Y690655D01*
G01X1240746Y688231D01*
G01X1241049Y686867D01*
G01X1241503Y685352D01*
G01X1241958Y684140D01*
G01X1242412Y683079D01*
G01X1243018Y681867D01*
G01X1243624Y680806D01*
G01X1244382Y679746D01*
G01X1245291Y678685D01*
G01X1247564Y676412D01*
G01X1248473Y675655D01*
G01X1250897Y674140D01*
G01X1251958Y673534D01*
G01X1253321Y672928D01*
G01X1254836Y672321D01*
G01X1256352Y671867D01*
G01X1257715Y671564D01*
G01X1257715Y671564D01*
G01X1260139Y670958D01*
G01X1264382Y670806D01*
G01X1268624Y670958D01*
G01X1270139Y671261D01*
G01X1271806Y671715D01*
G01X1273170Y672170D01*
G01X1274382Y672624D01*
G01X1275442Y673231D01*
G01X1276655Y673988D01*
G01X1277715Y674746D01*
G01X1278927Y675655D01*
G01X1281503Y678231D01*
G01X1282261Y679140D01*
G01X1283170Y680352D01*
G01X1284079Y681867D01*
G01X1284836Y683382D01*
G01X1285442Y684897D01*
G01X1285732Y685958D01*
G01X1298170Y685958D01*
G01X1298170Y685200D01*
G01X1298927Y683988D01*
G01X1299836Y682473D01*
G01X1300897Y680958D01*
G01X1301806Y679746D01*
G01X1302412Y678988D01*
G01X1303321Y677928D01*
G01X1305139Y676109D01*
G01X1307412Y674291D01*
G01X1309533Y673231D01*
G01X1310594Y672624D01*
G01X1311654Y672170D01*
G01X1313018Y671715D01*
G01X1314230Y671412D01*
G01X1315291Y671261D01*
G01X1315291Y671261D01*
G01X1316048Y670958D01*
G01X1319685Y670806D01*
G01X1323473Y670958D01*
G01X1324836Y671261D01*
G01X1326351Y671715D01*
G01X1327564Y672170D01*
G01X1328624Y672624D01*
G01X1329685Y673231D01*
G01X1330897Y673988D01*
G01X1331958Y674746D01*
G01X1333170Y675655D01*
G01X1334988Y677473D01*
G01X1335594Y678231D01*
G01X1336049Y678988D01*
G01X1336655Y679746D01*
G01X1337261Y680655D01*
G01X1338473Y683079D01*
G01X1338927Y684291D01*
G01X1339230Y685503D01*
G01X1339533Y687018D01*
G01X1339685Y688685D01*
G01X1339836Y689746D01*
G01X1339836Y690958D01*
G01X1339685Y692473D01*
G01X1339533Y693685D01*
G01X1339079Y695200D01*
G01X1338473Y696867D01*
G01X1337867Y698231D01*
G01X1337261Y699443D01*
G01X1336503Y700655D01*
G01X1335442Y702170D01*
G01X1334533Y703382D01*
G01X1329988Y707927D01*
G01X1328170Y709443D01*
G01X1327109Y710352D01*
G01X1326048Y711109D01*
G01X1324533Y712321D01*
G01X1322412Y713837D01*
G01X1321654Y714443D01*
G01X1316806Y718079D01*
G01X1315291Y719291D01*
G01X1313776Y720806D01*
G01X1312867Y721867D01*
G01X1311351Y723988D01*
G01X1310594Y725655D01*
G01X1310139Y727321D01*
G01X1309836Y729140D01*
G01X1309836Y730655D01*
G01X1310139Y732018D01*
G01X1310594Y733382D01*
G01X1311200Y734443D01*
G01X1311957Y735352D01*
G01X1312715Y736109D01*
G01X1313624Y736867D01*
G01X1314685Y737473D01*
G01X1316048Y738079D01*
G01X1318018Y738533D01*
G01X1320442Y738685D01*
G01X1322261Y738533D01*
G01X1323624Y738079D01*
G01X1324988Y737473D01*
G01X1326048Y736867D01*
G01X1327412Y735958D01*
G01X1329988Y733382D01*
G01X1330897Y732170D01*
G01X1331806Y731109D01*
G01X1332412Y730352D01*
G01X1332753Y730086D01*
G01X1333170Y730200D01*
G01X1338018Y733836D01*
G01X1338321Y734177D01*
G01X1338321Y734594D01*
G01X1337564Y735806D01*
G01X1336352Y737321D01*
G01X1335291Y738382D01*
G01X1334382Y739443D01*
G01X1333473Y740352D01*
G01X1332715Y740958D01*
G01X1331958Y741715D01*
G01X1330897Y742473D01*
G01X1329533Y743382D01*
G01X1328018Y744139D01*
G01X1355140Y744139D01*
G01X1355140Y672624D01*
G01X1367109Y672624D01*
G01X1379533Y672776D01*
G01X1382867Y673382D01*
G01X1384230Y673837D01*
G01X1385746Y674443D01*
G01X1387109Y675049D01*
G01X1388473Y675806D01*
G01X1389836Y676715D01*
G01X1390897Y677625D01*
G01X1391503Y678231D01*
G01X1392412Y678988D01*
G01X1393321Y680049D01*
G01X1394079Y680806D01*
G01X1394685Y681564D01*
G01X1395291Y682624D01*
G01X1396049Y683988D01*
G01X1396655Y685200D01*
G01X1397109Y686412D01*
G01X1397715Y688837D01*
G01X1398018Y690352D01*
G01X1398170Y693534D01*
G01X1398018Y696412D01*
G01X1397715Y697776D01*
G01X1397261Y699291D01*
G01X1396806Y700503D01*
G01X1396352Y701564D01*
G01X1395745Y702624D01*
G01X1394836Y703988D01*
G01X1393927Y705200D01*
G01X1392412Y706715D01*
G01X1391503Y707473D01*
G01X1390291Y708230D01*
G01X1390064Y708382D01*
G01X1409079Y708382D01*
G01X1409230Y707321D01*
G01X1409533Y703079D01*
G01X1409836Y700655D01*
G01X1410139Y699443D01*
G01X1411048Y696109D01*
G01X1411503Y694746D01*
G01X1412109Y693231D01*
G01X1412715Y691867D01*
G01X1413927Y689443D01*
G01X1414685Y688231D01*
G01X1415594Y686867D01*
G01X1416351Y685806D01*
G01X1418170Y683382D01*
G01X1421200Y680352D01*
G01X1423321Y678534D01*
G01X1424230Y677776D01*
G01X1426655Y676261D01*
G01X1427715Y675655D01*
G01X1431352Y673837D01*
G01X1433018Y673231D01*
G01X1434836Y672624D01*
G01X1436655Y672170D01*
G01X1438018Y671867D01*
G01X1439230Y671564D01*
G01X1441352Y671261D01*
G01X1441352Y671261D01*
G01X1442867Y670958D01*
G01X1448018Y670806D01*
G01X1453473Y670958D01*
G01X1455897Y671261D01*
G01X1458927Y671867D01*
G01X1460443Y672321D01*
G01X1462412Y672928D01*
G01X1465443Y674140D01*
G01X1466806Y674746D01*
G01X1469988Y676564D01*
G01X1470897Y677170D01*
G01X1471958Y677928D01*
G01X1473473Y678988D01*
G01X1474534Y680049D01*
G01X1476655Y681867D01*
G01X1477867Y683382D01*
G01X1478624Y684140D01*
G01X1479079Y684897D01*
G01X1478473Y685655D01*
G01X1477564Y686261D01*
G01X1476806Y686867D01*
G01X1474382Y688685D01*
G01X1473624Y688988D01*
G01X1473018Y688534D01*
G01X1469988Y685503D01*
G01X1468170Y683988D01*
G01X1467412Y683382D01*
G01X1466352Y682776D01*
G01X1464988Y681867D01*
G01X1462261Y680503D01*
G01X1460897Y679897D01*
G01X1459382Y679291D01*
G01X1457867Y678837D01*
G01X1456503Y678534D01*
G01X1455291Y678231D01*
G01X1451655Y677625D01*
G01X1448018Y677473D01*
G01X1444685Y677625D01*
G01X1441655Y677928D01*
G01X1440139Y678382D01*
G01X1438321Y678837D01*
G01X1436958Y679291D01*
G01X1434533Y680200D01*
G01X1433170Y680806D01*
G01X1431048Y682018D01*
G01X1429988Y682776D01*
G01X1429230Y683382D01*
G01X1428473Y683837D01*
G01X1427715Y684443D01*
G01X1426958Y685200D01*
G01X1426048Y685958D01*
G01X1425291Y686715D01*
G01X1424685Y687473D01*
G01X1423927Y688231D01*
G01X1422715Y689746D01*
G01X1421958Y690806D01*
G01X1421048Y692170D01*
G01X1420291Y693534D01*
G01X1419685Y694897D01*
G01X1419079Y696109D01*
G01X1418170Y698534D01*
G01X1417867Y699594D01*
G01X1417715Y700655D01*
G01X1417412Y701867D01*
G01X1417109Y703685D01*
G01X1416958Y705655D01*
G01X1416806Y707018D01*
G01X1416655Y708988D01*
G01X1416806Y710958D01*
G01X1417109Y713685D01*
G01X1417715Y716715D01*
G01X1418776Y719897D01*
G01X1419382Y721261D01*
G01X1419988Y722473D01*
G01X1420745Y723837D01*
G01X1422564Y726564D01*
G01X1423321Y727624D01*
G01X1426958Y731261D01*
G01X1429230Y733079D01*
G01X1430291Y733685D01*
G01X1431655Y734594D01*
G01X1434382Y735958D01*
G01X1435442Y736412D01*
G01X1436655Y736867D01*
G01X1439382Y737776D01*
G01X1440594Y738079D01*
G01X1441655Y738230D01*
G01X1443170Y738533D01*
G01X1445291Y738836D01*
G01X1448624Y738988D01*
G01X1451352Y738836D01*
G01X1454079Y738533D01*
G01X1455140Y738382D01*
G01X1456352Y738079D01*
G01X1459382Y737170D01*
G01X1460897Y736564D01*
G01X1462564Y735958D01*
G01X1464685Y734746D01*
G01X1466200Y733836D01*
G01X1468624Y732018D01*
G01X1472564Y728079D01*
G01X1473170Y727321D01*
G01X1473776Y726867D01*
G01X1474534Y727321D01*
G01X1475291Y727927D01*
G01X1476049Y728382D01*
G01X1476806Y728988D01*
G01X1478018Y729897D01*
G01X1479079Y730806D01*
G01X1479193Y731109D01*
G01X1478927Y731412D01*
G01X1476503Y734443D01*
G01X1474534Y736412D01*
G01X1472261Y738230D01*
G01X1471049Y738988D01*
G01X1469534Y740049D01*
G01X1468018Y740958D01*
G01X1466655Y741715D01*
G01X1465443Y742321D01*
G01X1464079Y742927D01*
G01X1462564Y743533D01*
G01X1460746Y744139D01*
G01X1458624Y744746D01*
G01X1456503Y745200D01*
G01X1454988Y745503D01*
G01X1452867Y745806D01*
G01X1447715Y745958D01*
G01X1442564Y745806D01*
G01X1440139Y745503D01*
G01X1437412Y744897D01*
G01X1436200Y744594D01*
G01X1432109Y743230D01*
G01X1430745Y742624D01*
G01X1428321Y741412D01*
G01X1427261Y740806D01*
G01X1425442Y739594D01*
G01X1424685Y738988D01*
G01X1422564Y737473D01*
G01X1418018Y732927D01*
G01X1417109Y731867D01*
G01X1415594Y729746D01*
G01X1414685Y728382D01*
G01X1413927Y727018D01*
G01X1413321Y725958D01*
G01X1412715Y724746D01*
G01X1411503Y722018D01*
G01X1410897Y720200D01*
G01X1410442Y718382D01*
G01X1410139Y717018D01*
G01X1409836Y715503D01*
G01X1409533Y713382D01*
G01X1409382Y711109D01*
G01X1409230Y709443D01*
G01X1409079Y708382D01*
G01X1390064Y708382D01*
G01X1388927Y709140D01*
G01X1387412Y709897D01*
G01X1386049Y710503D01*
G01X1384533Y711109D01*
G01X1383890Y711412D01*
G01X1383776Y711715D01*
G01X1384685Y712473D01*
G01X1386200Y713533D01*
G01X1388018Y715352D01*
G01X1388927Y716412D01*
G01X1389685Y717473D01*
G01X1390291Y718533D01*
G01X1390897Y719746D01*
G01X1391503Y721109D01*
G01X1391958Y723079D01*
G01X1392261Y724594D01*
G01X1392412Y727170D01*
G01X1392261Y729746D01*
G01X1391958Y731109D01*
G01X1391503Y732473D01*
G01X1390594Y734594D01*
G01X1389988Y735655D01*
G01X1389079Y737018D01*
G01X1388170Y738230D01*
G01X1387412Y738988D01*
G01X1385897Y740200D01*
G01X1384836Y740958D01*
G01X1383473Y741715D01*
G01X1382261Y742321D01*
G01X1380897Y742776D01*
G01X1379382Y743230D01*
G01X1378018Y743533D01*
G01X1374382Y743988D01*
G01X1364533Y744139D01*
G01X1355140Y744139D01*
G01X1355140Y744139D01*
G01X1328018Y744139D01*
G01X1326655Y744746D01*
G01X1325291Y745200D01*
G01X1324079Y745503D01*
G01X1322564Y745806D01*
G01X1319079Y745958D01*
G01X1316200Y745806D01*
G01X1314988Y745503D01*
G01X1313624Y745049D01*
G01X1312412Y744594D01*
G01X1311351Y744139D01*
G01X1308927Y742624D01*
G01X1307412Y741412D01*
G01X1305897Y739594D01*
G01X1305291Y738836D01*
G01X1303624Y735503D01*
G01X1303170Y734140D01*
G01X1302867Y732776D01*
G01X1302564Y731261D01*
G01X1302412Y728685D01*
G01X1302564Y726715D01*
G01X1303170Y723988D01*
G01X1303624Y722776D01*
G01X1304230Y721564D01*
G01X1305442Y719443D01*
G01X1306048Y718533D01*
G01X1306958Y717321D01*
G01X1308776Y715503D01*
G01X1310594Y713988D01*
G01X1312715Y712170D01*
G01X1313624Y711412D01*
G01X1314533Y710806D01*
G01X1318321Y707776D01*
G01X1319533Y706867D01*
G01X1321048Y705655D01*
G01X1322109Y704746D01*
G01X1322867Y704140D01*
G01X1323624Y703382D01*
G01X1325745Y701564D01*
G01X1326503Y700806D01*
G01X1328018Y698988D01*
G01X1328927Y697927D01*
G01X1329685Y696867D01*
G01X1330291Y695958D01*
G01X1330897Y694746D01*
G01X1331503Y693231D01*
G01X1331958Y691261D01*
G01X1332109Y688988D01*
G01X1331958Y687321D01*
G01X1331503Y685958D01*
G01X1330897Y684594D01*
G01X1330291Y683534D01*
G01X1329382Y682170D01*
G01X1328018Y680958D01*
G01X1326655Y680049D01*
G01X1325291Y679291D01*
G01X1324079Y678685D01*
G01X1322715Y678231D01*
G01X1321351Y677928D01*
G01X1319988Y677776D01*
G01X1318776Y677625D01*
G01X1318018Y677625D01*
G01X1316957Y677776D01*
G01X1315745Y678079D01*
G01X1314533Y678534D01*
G01X1313170Y679140D01*
G01X1311654Y680049D01*
G01X1310594Y680806D01*
G01X1309836Y681412D01*
G01X1309079Y682170D01*
G01X1308170Y683382D01*
G01X1307261Y684443D01*
G01X1306654Y685200D01*
G01X1305897Y686261D01*
G01X1305139Y687473D01*
G01X1304533Y688534D01*
G01X1304079Y689140D01*
G01X1303321Y689140D01*
G01X1302412Y688685D01*
G01X1301503Y688079D01*
G01X1300442Y687473D01*
G01X1299230Y686715D01*
G01X1298170Y685958D01*
G01X1285732Y685958D01*
G01X1285897Y686564D01*
G01X1286200Y687928D01*
G01X1286503Y689140D01*
G01X1287109Y692776D01*
G01X1287261Y694594D01*
G01X1287412Y696109D01*
G01X1287564Y720352D01*
G01X1287564Y744139D01*
G01X1280291Y744139D01*
G01X1280291Y718382D01*
G01X1280139Y692170D01*
G01X1279988Y690958D01*
G01X1279685Y689594D01*
G01X1279230Y688231D01*
G01X1278776Y687018D01*
G01X1277867Y685200D01*
G01X1277109Y683988D01*
G01X1276200Y682928D01*
G01X1274685Y681412D01*
G01X1273624Y680655D01*
G01X1272261Y679746D01*
G01X1270745Y678988D01*
G01X1269382Y678382D01*
G01X1267715Y677928D01*
G01X1266200Y677625D01*
G01X1263776Y677473D01*
G01X1261352Y677625D01*
G01X1259988Y677928D01*
G01X1258473Y678382D01*
G01X1257261Y678837D01*
G01X1256200Y679291D01*
G01X1254988Y679897D01*
G01X1253927Y680503D01*
G01X1252867Y681261D01*
G01X1251806Y682170D01*
G01X1251049Y682928D01*
G01X1250139Y683988D01*
G01X1249382Y685352D01*
G01X1248776Y686715D01*
G01X1248170Y688382D01*
G01X1247715Y690352D01*
G01X1247412Y692473D01*
G01X1247261Y718837D01*
G01X1247261Y744139D01*
G01X1239988Y744139D01*
G01X1231200Y744139D01*
G01X1231200Y769291D01*
G01X1485443Y769291D01*
G01X1485443Y650200D01*
G37*
G36*
G01X1369230Y679594D02*
G01X1362564Y679746D01*
G01X1362412Y693534D01*
G01X1362412Y707170D01*
G01X1364685Y707170D01*
G01X1367412Y707018D01*
G01X1375594Y706715D01*
G01X1378321Y706412D01*
G01X1380746Y705806D01*
G01X1381958Y705352D01*
G01X1384079Y704291D01*
G01X1384836Y703837D01*
G01X1387109Y702018D01*
G01X1387867Y701109D01*
G01X1388473Y700200D01*
G01X1389230Y699140D01*
G01X1389836Y697776D01*
G01X1390291Y696564D01*
G01X1390594Y695200D01*
G01X1390746Y693988D01*
G01X1390897Y692321D01*
G01X1390746Y690655D01*
G01X1390291Y689140D01*
G01X1389685Y687624D01*
G01X1389079Y686412D01*
G01X1388321Y685352D01*
G01X1386049Y683079D01*
G01X1385291Y682473D01*
G01X1384533Y682018D01*
G01X1383473Y681412D01*
G01X1382109Y680806D01*
G01X1380291Y680352D01*
G01X1378624Y680049D01*
G01X1376200Y679746D01*
G01X1369230Y679594D01*
G37*
G36*
G01X1364382Y714140D02*
G01X1362564Y714291D01*
G01X1362412Y725806D01*
G01X1362412Y737170D01*
G01X1368624Y737170D01*
G01X1375291Y737018D01*
G01X1376806Y736715D01*
G01X1378473Y736261D01*
G01X1379836Y735655D01*
G01X1380897Y735049D01*
G01X1381655Y734443D01*
G01X1382412Y733685D01*
G01X1383018Y732927D01*
G01X1383776Y731867D01*
G01X1384382Y730352D01*
G01X1384685Y729140D01*
G01X1384988Y727018D01*
G01X1384988Y725200D01*
G01X1384685Y723382D01*
G01X1384230Y722170D01*
G01X1383624Y720958D01*
G01X1383018Y720049D01*
G01X1382109Y718837D01*
G01X1381049Y717776D01*
G01X1380139Y717170D01*
G01X1378927Y716412D01*
G01X1377261Y715655D01*
G01X1375291Y715049D01*
G01X1373624Y714746D01*
G01X1372564Y714594D01*
G01X1366503Y714291D01*
G01X1364382Y714140D01*
G37*
G04 Text End*

G04 PolygonModel Start*
G54D10*
G01X241900Y674500D02*
G01X329900Y746700D01*
G01X226789Y152591D02*
G03X110746Y227907I13211J147409D01*
G36*
G01X1485300Y651600D02*
G01X1485300Y567400D01*
G01X1472600Y554700D01*
G01X1472600Y600000D01*
G01X1425300Y647300D01*
G01X1400100Y647300D01*
G01X1398800Y648600D01*
G01X1398800Y664600D01*
G01X1411800Y651600D01*
G01X1485300Y651600D01*
G37*
G36*
G01X387907Y300284D02*
G01X400400Y300284D01*
G01X400500Y300384D01*
G01X400500Y34310D01*
G01X397700Y34500D01*
G01X397700Y148037D01*
G01X297514Y148827D01*
G01X369526Y227857D01*
G01X387907Y300284D01*
G37*
G54D11*
G01X979491Y827380D02*
G01X979491Y698887D01*
G01X979491Y698887D02*
G01X1162909Y698887D01*
G01X1162909Y698887D02*
G01X1162909Y827380D01*
G01X979491Y922620D02*
G01X979491Y1051113D01*
G01X979491Y1051113D02*
G01X1162909Y1051113D01*
G01X1162909Y1051113D02*
G01X1162909Y922620D01*
G01X754491Y827380D02*
G01X754491Y698887D01*
G01X754491Y698887D02*
G01X937909Y698887D01*
G01X937909Y698887D02*
G01X937909Y827380D01*
G01X754491Y922620D02*
G01X754491Y1051113D01*
G01X754491Y1051113D02*
G01X937909Y1051113D01*
G01X937909Y1051113D02*
G01X937909Y922620D01*
G54D10*
G01X1412997Y288128D02*
G01X1223005Y290008D01*
G01X1223005Y290008D02*
G01X1223005Y15005D01*
G01X1223005Y15005D02*
G01X1412997Y15005D01*
G01X518000Y293140D02*
G01X713004Y293140D01*
G01X713004Y293140D02*
G01X713004Y15005D01*
G01X713004Y15005D02*
G01X518000Y15005D01*
G01X518000Y260861D02*
G01X518000Y419146D01*
G01X1412997Y38060D02*
G01X1412997Y-109994D01*
G01X1412997Y-109994D02*
G01X518000Y-109994D01*
G01X518000Y-109994D02*
G01X518000Y39150D01*
G01X1412997Y418062D02*
G01X1412997Y261954D01*
G01X1301115Y570002D02*
G01X1326889Y570002D01*
G01X609115Y570002D02*
G01X634886Y570002D01*

G04 Rect Start*
G01X466000Y85600D02*
G01X466000Y570500D01*
G02X536000Y640500I70000J0D01*
G01X1402611Y640500D01*
G02X1472611Y570500I0J-70000D01*
G01X1472611Y85600D01*
G02X1402611Y15600I-70000J0D01*
G01X536000Y15600D01*
G02X466000Y85600I0J70000D01*
G36*
G01X289700Y769800D02*
G01X289700Y888400D01*
G01X313100Y888400D01*
G01X313100Y769800D01*
G01X289700Y769800D01*
G37*
G04 Rect End*

G04 Circle Start*
G01X103984Y625484D02*
G03X258015Y625484I77016J0D01*
G03X103984Y625484I-77016J0D01*
G01X301893Y840000D02*
G03X598108Y840000I148107J0D01*
G03X301893Y840000I-148107J0D01*
G04 Circle End*

M02*

