G04 Layer: TopPasteMaskLayer*
G04 EasyEDA Pro v2.2.45.4, 2026-05-14 13:08:14*
G04 Gerber Generator version 0.3*
G04 Scale: 100 percent, Rotated: No, Reflected: No*
G04 Dimensions in millimeters*
G04 Leading zeros omitted, absolute positions, 4 integers and 5 decimals*
G04 Generated by one-click*
%FSLAX45Y45*%
%MOMM*%
%ADD10C,1.0*%
%ADD11C,2.3*%
%ADD12C,0.8067*%
G75*


G04 PolygonModel Start*
G36*
G01X1007200Y1045002D02*
G01X1135198Y1045002D01*
G01X1140199Y1040001D01*
G01X1140199Y925000D01*
G01X1135198Y920001D01*
G01X1094195Y919498D01*
G01X1094195Y964499D01*
G01X1049196Y964499D01*
G01X1049196Y920499D01*
G01X1007200Y920001D01*
G01X1002198Y925000D01*
G01X1002198Y1040001D01*
G01X1007200Y1045002D01*
G37*
G36*
G01X1007200Y830001D02*
G01X1049196Y829999D01*
G01X1049196Y785501D01*
G01X1094195Y785501D01*
G01X1094195Y829498D01*
G01X1135198Y830001D01*
G01X1140199Y825000D01*
G01X1140199Y710002D01*
G01X1135198Y705000D01*
G01X1007200Y705000D01*
G01X1002198Y710002D01*
G01X1002198Y825000D01*
G01X1007200Y830001D01*
G37*
G36*
G01X782200Y1045002D02*
G01X910198Y1045002D01*
G01X915199Y1040001D01*
G01X915199Y925000D01*
G01X910198Y920001D01*
G01X869195Y919498D01*
G01X869195Y964499D01*
G01X824196Y964499D01*
G01X824196Y920499D01*
G01X782200Y920001D01*
G01X777198Y925000D01*
G01X777198Y1040001D01*
G01X782200Y1045002D01*
G37*
G36*
G01X782200Y830001D02*
G01X824196Y829999D01*
G01X824196Y785501D01*
G01X869195Y785501D01*
G01X869195Y829498D01*
G01X910198Y830001D01*
G01X915199Y825000D01*
G01X915199Y710002D01*
G01X910198Y705000D01*
G01X782200Y705000D01*
G01X777198Y710002D01*
G01X777198Y825000D01*
G01X782200Y830001D01*
G37*
G36*
G01X1403744Y239856D02*
G01X1401255Y239980D01*
G01X1398760Y239980D01*
G01X1396271Y239856D01*
G01X1393790Y239607D01*
G01X1391326Y239236D01*
G01X1388882Y238740D01*
G01X1386467Y238126D01*
G01X1384084Y237392D01*
G01X1381740Y236538D01*
G01X1379444Y235571D01*
G01X1377196Y234488D01*
G01X1375009Y233297D01*
G01X1372880Y231997D01*
G01X1370820Y230592D01*
G01X1368834Y229086D01*
G01X1366924Y227483D01*
G01X1365095Y225789D01*
G01X1363355Y224003D01*
G01X1361704Y222134D01*
G01X1360150Y220186D01*
G01X1358695Y218161D01*
G01X1357343Y216066D01*
G01X1356096Y213907D01*
G01X1354958Y211689D01*
G01X1353935Y209416D01*
G01X1353023Y207097D01*
G01X1352230Y204732D01*
G01X1351555Y202332D01*
G01X1350998Y199904D01*
G01X1350567Y197448D01*
G01X1350257Y194974D01*
G01X1350069Y192487D01*
G01X1350008Y189995D01*
G01X1350008Y109995D01*
G01X1350069Y107504D01*
G01X1350257Y105017D01*
G01X1350567Y102543D01*
G01X1350998Y100087D01*
G01X1351555Y97659D01*
G01X1352230Y95258D01*
G01X1353023Y92894D01*
G01X1353935Y90575D01*
G01X1354958Y88301D01*
G01X1356096Y86084D01*
G01X1357343Y83925D01*
G01X1358695Y81829D01*
G01X1360150Y79805D01*
G01X1361704Y77857D01*
G01X1363355Y75987D01*
G01X1365095Y74202D01*
G01X1366924Y72508D01*
G01X1368834Y70905D01*
G01X1370820Y69399D01*
G01X1372880Y67994D01*
G01X1375009Y66694D01*
G01X1377196Y65502D01*
G01X1379444Y64420D01*
G01X1381740Y63453D01*
G01X1384084Y62599D01*
G01X1386467Y61865D01*
G01X1388882Y61250D01*
G01X1391326Y60755D01*
G01X1393790Y60384D01*
G01X1396271Y60135D01*
G01X1398760Y60011D01*
G01X1401255Y60011D01*
G01X1403744Y60135D01*
G01X1406226Y60384D01*
G01X1408689Y60755D01*
G01X1411133Y61250D01*
G01X1413548Y61865D01*
G01X1415931Y62599D01*
G01X1418275Y63453D01*
G01X1420571Y64420D01*
G01X1422819Y65502D01*
G01X1425009Y66694D01*
G01X1427135Y67994D01*
G01X1429195Y69399D01*
G01X1431181Y70905D01*
G01X1433091Y72508D01*
G01X1434920Y74202D01*
G01X1436660Y75987D01*
G01X1438311Y77857D01*
G01X1439865Y79805D01*
G01X1441321Y81829D01*
G01X1442672Y83925D01*
G01X1443919Y86084D01*
G01X1445057Y88301D01*
G01X1446081Y90575D01*
G01X1446993Y92894D01*
G01X1447785Y95258D01*
G01X1448461Y97659D01*
G01X1449017Y100087D01*
G01X1449449Y102543D01*
G01X1449759Y105017D01*
G01X1449947Y107504D01*
G01X1450008Y109995D01*
G01X1450008Y189995D01*
G01X1449947Y192487D01*
G01X1449759Y194974D01*
G01X1449449Y197448D01*
G01X1449017Y199904D01*
G01X1448461Y202332D01*
G01X1447785Y204732D01*
G01X1446993Y207097D01*
G01X1446081Y209416D01*
G01X1445057Y211689D01*
G01X1443919Y213907D01*
G01X1442672Y216066D01*
G01X1441321Y218161D01*
G01X1439865Y220186D01*
G01X1438311Y222134D01*
G01X1436660Y224003D01*
G01X1434920Y225789D01*
G01X1433091Y227483D01*
G01X1431181Y229086D01*
G01X1429195Y230592D01*
G01X1427135Y231997D01*
G01X1425009Y233297D01*
G01X1422819Y234488D01*
G01X1420571Y235571D01*
G01X1418275Y236538D01*
G01X1415931Y237392D01*
G01X1413548Y238126D01*
G01X1411133Y238740D01*
G01X1408689Y239236D01*
G01X1406226Y239607D01*
G01X1403744Y239856D01*
G37*
G36*
G01X539738Y239856D02*
G01X537248Y239980D01*
G01X534754Y239980D01*
G01X532265Y239856D01*
G01X529783Y239607D01*
G01X527319Y239236D01*
G01X524876Y238740D01*
G01X522460Y238126D01*
G01X520078Y237392D01*
G01X517734Y236538D01*
G01X515437Y235571D01*
G01X513189Y234488D01*
G01X511003Y233297D01*
G01X508874Y231997D01*
G01X506814Y230592D01*
G01X504828Y229086D01*
G01X502918Y227483D01*
G01X501089Y225789D01*
G01X499349Y224003D01*
G01X497698Y222134D01*
G01X496144Y220186D01*
G01X494688Y218161D01*
G01X493337Y216066D01*
G01X492090Y213907D01*
G01X490952Y211689D01*
G01X489928Y209416D01*
G01X489016Y207097D01*
G01X488224Y204732D01*
G01X487548Y202332D01*
G01X486992Y199904D01*
G01X486560Y197448D01*
G01X486250Y194974D01*
G01X486062Y192487D01*
G01X486001Y189995D01*
G01X486001Y109995D01*
G01X486062Y107504D01*
G01X486250Y105017D01*
G01X486560Y102543D01*
G01X486992Y100087D01*
G01X487548Y97659D01*
G01X488224Y95258D01*
G01X489016Y92894D01*
G01X489928Y90575D01*
G01X490952Y88301D01*
G01X492090Y86084D01*
G01X493337Y83925D01*
G01X494688Y81829D01*
G01X496144Y79805D01*
G01X497698Y77857D01*
G01X499349Y75987D01*
G01X501089Y74202D01*
G01X502918Y72508D01*
G01X504828Y70905D01*
G01X506814Y69399D01*
G01X508874Y67994D01*
G01X511003Y66694D01*
G01X513189Y65502D01*
G01X515437Y64420D01*
G01X517734Y63453D01*
G01X520078Y62599D01*
G01X522460Y61865D01*
G01X524876Y61250D01*
G01X527319Y60755D01*
G01X529783Y60384D01*
G01X532265Y60135D01*
G01X534754Y60011D01*
G01X537248Y60011D01*
G01X539738Y60135D01*
G01X542219Y60384D01*
G01X544683Y60755D01*
G01X547126Y61250D01*
G01X549542Y61865D01*
G01X551924Y62599D01*
G01X554269Y63453D01*
G01X556565Y64420D01*
G01X558813Y65502D01*
G01X561002Y66694D01*
G01X563128Y67994D01*
G01X565188Y69399D01*
G01X567175Y70905D01*
G01X569085Y72508D01*
G01X570914Y74202D01*
G01X572653Y75987D01*
G01X574304Y77857D01*
G01X575859Y79805D01*
G01X577314Y81829D01*
G01X578666Y83925D01*
G01X579913Y86084D01*
G01X581051Y88301D01*
G01X582074Y90575D01*
G01X582986Y92894D01*
G01X583779Y95258D01*
G01X584454Y97659D01*
G01X585011Y100087D01*
G01X585442Y102543D01*
G01X585752Y105017D01*
G01X585940Y107504D01*
G01X586001Y109995D01*
G01X586001Y189995D01*
G01X585940Y192487D01*
G01X585752Y194974D01*
G01X585442Y197448D01*
G01X585011Y199904D01*
G01X584454Y202332D01*
G01X583779Y204732D01*
G01X582986Y207097D01*
G01X582074Y209416D01*
G01X581051Y211689D01*
G01X579913Y213907D01*
G01X578666Y216066D01*
G01X577314Y218161D01*
G01X575859Y220186D01*
G01X574304Y222134D01*
G01X572653Y224003D01*
G01X570914Y225789D01*
G01X569085Y227483D01*
G01X567175Y229086D01*
G01X565188Y230592D01*
G01X563128Y231997D01*
G01X561002Y233297D01*
G01X558813Y234488D01*
G01X556565Y235571D01*
G01X554269Y236538D01*
G01X551924Y237392D01*
G01X549542Y238126D01*
G01X547126Y238740D01*
G01X544683Y239236D01*
G01X542219Y239607D01*
G01X539738Y239856D01*
G37*
G36*
G01X1403744Y619865D02*
G01X1401255Y619989D01*
G01X1398760Y619989D01*
G01X1396271Y619865D01*
G01X1393790Y619616D01*
G01X1391326Y619245D01*
G01X1388882Y618750D01*
G01X1386467Y618135D01*
G01X1384084Y617401D01*
G01X1381740Y616548D01*
G01X1379444Y615580D01*
G01X1377196Y614498D01*
G01X1375009Y613307D01*
G01X1372880Y612006D01*
G01X1370820Y610602D01*
G01X1368834Y609095D01*
G01X1366924Y607493D01*
G01X1365095Y605798D01*
G01X1363355Y604013D01*
G01X1361704Y602143D01*
G01X1360150Y600195D01*
G01X1358695Y598171D01*
G01X1357343Y596075D01*
G01X1356096Y593916D01*
G01X1354958Y591699D01*
G01X1353935Y589426D01*
G01X1353023Y587107D01*
G01X1352230Y584742D01*
G01X1351555Y582341D01*
G01X1350998Y579913D01*
G01X1350567Y577457D01*
G01X1350257Y574983D01*
G01X1350069Y572496D01*
G01X1350008Y570005D01*
G01X1350008Y490005D01*
G01X1350069Y487513D01*
G01X1350257Y485026D01*
G01X1350567Y482553D01*
G01X1350998Y480096D01*
G01X1351555Y477668D01*
G01X1352230Y475268D01*
G01X1353023Y472903D01*
G01X1353935Y470584D01*
G01X1354958Y468311D01*
G01X1356096Y466093D01*
G01X1357343Y463934D01*
G01X1358695Y461839D01*
G01X1360150Y459814D01*
G01X1361704Y457866D01*
G01X1363355Y455997D01*
G01X1365095Y454211D01*
G01X1366924Y452517D01*
G01X1368834Y450914D01*
G01X1370820Y449408D01*
G01X1372880Y448003D01*
G01X1375009Y446703D01*
G01X1377196Y445512D01*
G01X1379444Y444430D01*
G01X1381740Y443462D01*
G01X1384084Y442608D01*
G01X1386467Y441874D01*
G01X1388882Y441260D01*
G01X1391326Y440764D01*
G01X1393790Y440394D01*
G01X1396271Y440145D01*
G01X1398760Y440020D01*
G01X1401255Y440020D01*
G01X1403744Y440145D01*
G01X1406226Y440394D01*
G01X1408689Y440764D01*
G01X1411133Y441260D01*
G01X1413548Y441874D01*
G01X1415931Y442608D01*
G01X1418275Y443462D01*
G01X1420571Y444430D01*
G01X1422819Y445512D01*
G01X1425009Y446703D01*
G01X1427135Y448003D01*
G01X1429195Y449408D01*
G01X1431181Y450914D01*
G01X1433091Y452517D01*
G01X1434920Y454211D01*
G01X1436660Y455997D01*
G01X1438311Y457866D01*
G01X1439865Y459814D01*
G01X1441321Y461839D01*
G01X1442672Y463934D01*
G01X1443919Y466093D01*
G01X1445057Y468311D01*
G01X1446081Y470584D01*
G01X1446993Y472903D01*
G01X1447785Y475268D01*
G01X1448461Y477668D01*
G01X1449017Y480096D01*
G01X1449449Y482553D01*
G01X1449759Y485026D01*
G01X1449947Y487513D01*
G01X1450008Y490005D01*
G01X1450008Y570005D01*
G01X1449947Y572496D01*
G01X1449759Y574983D01*
G01X1449449Y577457D01*
G01X1449017Y579913D01*
G01X1448461Y582341D01*
G01X1447785Y584742D01*
G01X1446993Y587107D01*
G01X1446081Y589426D01*
G01X1445057Y591699D01*
G01X1443919Y593916D01*
G01X1442672Y596075D01*
G01X1441321Y598171D01*
G01X1439865Y600195D01*
G01X1438311Y602143D01*
G01X1436660Y604013D01*
G01X1434920Y605798D01*
G01X1433091Y607493D01*
G01X1431181Y609095D01*
G01X1429195Y610602D01*
G01X1427135Y612006D01*
G01X1425009Y613307D01*
G01X1422819Y614498D01*
G01X1420571Y615580D01*
G01X1418275Y616548D01*
G01X1415931Y617401D01*
G01X1413548Y618135D01*
G01X1411133Y618750D01*
G01X1408689Y619245D01*
G01X1406226Y619616D01*
G01X1403744Y619865D01*
G37*
G36*
G01X539738Y619865D02*
G01X537248Y619989D01*
G01X534754Y619989D01*
G01X532265Y619865D01*
G01X529783Y619616D01*
G01X527319Y619245D01*
G01X524876Y618750D01*
G01X522460Y618135D01*
G01X520078Y617401D01*
G01X517734Y616548D01*
G01X515437Y615580D01*
G01X513189Y614498D01*
G01X511003Y613307D01*
G01X508874Y612006D01*
G01X506814Y610602D01*
G01X504828Y609095D01*
G01X502918Y607493D01*
G01X501089Y605798D01*
G01X499349Y604013D01*
G01X497698Y602143D01*
G01X496144Y600195D01*
G01X494688Y598171D01*
G01X493337Y596075D01*
G01X492090Y593916D01*
G01X490952Y591699D01*
G01X489928Y589426D01*
G01X489016Y587107D01*
G01X488224Y584742D01*
G01X487548Y582341D01*
G01X486992Y579913D01*
G01X486560Y577457D01*
G01X486250Y574983D01*
G01X486062Y572496D01*
G01X486001Y570005D01*
G01X486001Y490005D01*
G01X486062Y487513D01*
G01X486250Y485026D01*
G01X486560Y482553D01*
G01X486992Y480096D01*
G01X487548Y477668D01*
G01X488224Y475268D01*
G01X489016Y472903D01*
G01X489928Y470584D01*
G01X490952Y468311D01*
G01X492090Y466093D01*
G01X493337Y463934D01*
G01X494688Y461839D01*
G01X496144Y459814D01*
G01X497698Y457866D01*
G01X499349Y455997D01*
G01X501089Y454211D01*
G01X502918Y452517D01*
G01X504828Y450914D01*
G01X506814Y449408D01*
G01X508874Y448003D01*
G01X511003Y446703D01*
G01X513189Y445512D01*
G01X515437Y444430D01*
G01X517734Y443462D01*
G01X520078Y442608D01*
G01X522460Y441874D01*
G01X524876Y441260D01*
G01X527319Y440764D01*
G01X529783Y440394D01*
G01X532265Y440145D01*
G01X534754Y440020D01*
G01X537248Y440020D01*
G01X539738Y440145D01*
G01X542219Y440394D01*
G01X544683Y440764D01*
G01X547126Y441260D01*
G01X549542Y441874D01*
G01X551924Y442608D01*
G01X554269Y443462D01*
G01X556565Y444430D01*
G01X558813Y445512D01*
G01X561002Y446703D01*
G01X563128Y448003D01*
G01X565188Y449408D01*
G01X567175Y450914D01*
G01X569085Y452517D01*
G01X570914Y454211D01*
G01X572653Y455997D01*
G01X574304Y457866D01*
G01X575859Y459814D01*
G01X577314Y461839D01*
G01X578666Y463934D01*
G01X579913Y466093D01*
G01X581051Y468311D01*
G01X582074Y470584D01*
G01X582986Y472903D01*
G01X583779Y475268D01*
G01X584454Y477668D01*
G01X585011Y480096D01*
G01X585442Y482553D01*
G01X585752Y485026D01*
G01X585940Y487513D01*
G01X586001Y490005D01*
G01X586001Y570005D01*
G01X585940Y572496D01*
G01X585752Y574983D01*
G01X585442Y577457D01*
G01X585011Y579913D01*
G01X584454Y582341D01*
G01X583779Y584742D01*
G01X582986Y587107D01*
G01X582074Y589426D01*
G01X581051Y591699D01*
G01X579913Y593916D01*
G01X578666Y596075D01*
G01X577314Y598171D01*
G01X575859Y600195D01*
G01X574304Y602143D01*
G01X572653Y604013D01*
G01X570914Y605798D01*
G01X569085Y607493D01*
G01X567175Y609095D01*
G01X565188Y610602D01*
G01X563128Y612006D01*
G01X561002Y613307D01*
G01X558813Y614498D01*
G01X556565Y615580D01*
G01X554269Y616548D01*
G01X551924Y617401D01*
G01X549542Y618135D01*
G01X547126Y618750D01*
G01X544683Y619245D01*
G01X542219Y619616D01*
G01X539738Y619865D01*
G37*
G36*
G01X658010Y579974D02*
G01X738025Y579974D01*
G01X738025Y479979D01*
G01X658010Y479979D01*
G01X658010Y579974D01*
G37*
G36*
G01X783024Y579974D02*
G01X853016Y579974D01*
G01X853016Y479979D01*
G01X783024Y479979D01*
G01X783024Y579974D01*
G37*
G36*
G01X883019Y579974D02*
G01X953011Y579974D01*
G01X953011Y479979D01*
G01X883019Y479979D01*
G01X883019Y579974D01*
G37*
G36*
G01X983008Y579974D02*
G01X1053018Y579974D01*
G01X1053018Y479979D01*
G01X983008Y479979D01*
G01X983008Y579974D01*
G37*
G36*
G01X1083011Y579974D02*
G01X1153018Y579974D01*
G01X1153018Y479979D01*
G01X1083011Y479979D01*
G01X1083011Y579974D01*
G37*
G36*
G01X1198017Y579974D02*
G01X1278009Y579974D01*
G01X1278009Y479979D01*
G01X1198017Y479979D01*
G01X1198017Y579974D01*
G37*

G04 Pad Start*
G54D10*
G01X181000Y625500D03*
G54D11*
G01X450000Y840000D03*
G01X240000Y300000D03*
G04 Pad End*

M02*

