G04 Layer: BottomSilkscreenLayer*
G04 EasyEDA Pro v2.2.45.4, 2026-05-14 13:08:14*
G04 Gerber Generator version 0.3*
G04 Scale: 100 percent, Rotated: No, Reflected: No*
G04 Dimensions in millimeters*
G04 Leading zeros omitted, absolute positions, 4 integers and 5 decimals*
G04 Generated by one-click*
%FSLAX45Y45*%
%MOMM*%
%ADD10C,0.254*%
%ADD11C,0.0948*%
G75*


G04 Text Start*
G36*
G01X984908Y957038D02*
G01X983523Y956519D01*
G01X982137Y956173D01*
G01X981271Y955999D01*
G01X978847Y955826D01*
G01X975383Y956173D01*
G01X973651Y956692D01*
G01X972266Y957212D01*
G01X970534Y958078D01*
G01X969148Y958943D01*
G01X968109Y959636D01*
G01X965512Y962234D01*
G01X964819Y963100D01*
G01X964126Y964139D01*
G01X963260Y965524D01*
G01X962568Y966910D01*
G01X962048Y968122D01*
G01X961355Y969681D01*
G01X960663Y971932D01*
G01X959970Y974357D01*
G01X959450Y976781D01*
G01X959104Y978513D01*
G01X958758Y981284D01*
G01X958411Y984401D01*
G01X958238Y990982D01*
G01X958411Y997563D01*
G01X958758Y1001027D01*
G01X959104Y1003798D01*
G01X959450Y1005703D01*
G01X959970Y1008300D01*
G01X960663Y1010725D01*
G01X961355Y1012630D01*
G01X962048Y1014362D01*
G01X962914Y1016267D01*
G01X963953Y1017998D01*
G01X965685Y1020423D01*
G01X966724Y1021635D01*
G01X967590Y1022501D01*
G01X968629Y1023367D01*
G01X970014Y1024233D01*
G01X971573Y1025099D01*
G01X972958Y1025792D01*
G01X974517Y1026311D01*
G01X976076Y1026658D01*
G01X977981Y1026831D01*
G01X980232Y1026658D01*
G01X981964Y1026311D01*
G01X983349Y1025965D01*
G01X984735Y1025445D01*
G01X986293Y1024753D01*
G01X987506Y1024060D01*
G01X988891Y1023194D01*
G01X990103Y1022155D01*
G01X992182Y1020077D01*
G01X993394Y1018345D01*
G01X994433Y1016613D01*
G01X995299Y1014881D01*
G01X995992Y1013323D01*
G01X996684Y1011418D01*
G01X997204Y1009686D01*
G01X997897Y1005876D01*
G01X998243Y1003105D01*
G01X998589Y998948D01*
G01X998763Y991848D01*
G01X998589Y984748D01*
G01X998416Y983016D01*
G01X998243Y980591D01*
G01X997897Y977820D01*
G01X997550Y975742D01*
G01X997204Y973837D01*
G01X996684Y971759D01*
G01X996165Y970200D01*
G01X995645Y968815D01*
G01X995126Y967603D01*
G01X994606Y966563D01*
G01X993221Y964139D01*
G01X992355Y962927D01*
G01X991316Y961714D01*
G01X989238Y959636D01*
G01X987506Y958424D01*
G01X986120Y957558D01*
G01X984908Y957038D01*
G37*
G36*
G01X586590Y925000D02*
G01X586590Y1017652D01*
G01X593690Y1017652D01*
G01X593690Y1017176D01*
G01X594037Y1016786D01*
G01X595422Y1015747D01*
G01X597154Y1014362D01*
G01X598539Y1013323D01*
G01X599405Y1012630D01*
G01X599752Y1012500D01*
G01X600098Y1012803D01*
G01X600964Y1013669D01*
G01X602696Y1015747D01*
G01X604428Y1017479D01*
G01X607025Y1019557D01*
G01X608238Y1020423D01*
G01X609969Y1021462D01*
G01X611355Y1022328D01*
G01X612740Y1023021D01*
G01X614472Y1023713D01*
G01X616377Y1024406D01*
G01X620014Y1025618D01*
G01X622438Y1025965D01*
G01X625556Y1026311D01*
G01X628846Y1026484D01*
G01X632137Y1026311D01*
G01X633349Y1026138D01*
G01X634908Y1025965D01*
G01X638371Y1025272D01*
G01X640276Y1024753D01*
G01X642354Y1024060D01*
G01X647030Y1021982D01*
G01X648416Y1021116D01*
G01X649974Y1020077D01*
G01X651360Y1019211D01*
G01X652399Y1018345D01*
G01X654823Y1016267D01*
G01X655689Y1015401D01*
G01X657421Y1013323D01*
G01X658460Y1012110D01*
G01X659499Y1010552D01*
G01X660365Y1009166D01*
G01X661058Y1007954D01*
G01X661751Y1006568D01*
G01X662443Y1005010D01*
G01X663136Y1003278D01*
G01X663656Y1001719D01*
G01X664348Y998948D01*
G01X664695Y996524D01*
G01X664868Y992021D01*
G01X664695Y987172D01*
G01X664348Y984748D01*
G01X663829Y981977D01*
G01X663136Y979725D01*
G01X662443Y977820D01*
G01X661751Y976088D01*
G01X661058Y974703D01*
G01X660365Y973491D01*
G01X659499Y972105D01*
G01X658807Y970893D01*
G01X656728Y968295D01*
G01X653265Y964832D01*
G01X651533Y963446D01*
G01X650321Y962580D01*
G01X648762Y961541D01*
G01X647377Y960675D01*
G01X643913Y958943D01*
G01X642008Y958251D01*
G01X639757Y957558D01*
G01X636293Y956692D01*
G01X633176Y956346D01*
G01X629019Y956173D01*
G01X624863Y956346D01*
G01X620707Y957038D01*
G01X617243Y957904D01*
G01X615338Y958597D01*
G01X613606Y959290D01*
G01X612221Y959983D01*
G01X611008Y960675D01*
G01X609277Y961541D01*
G01X606159Y963619D01*
G01X604947Y964658D01*
G01X602869Y966390D01*
G01X601137Y968122D01*
G01X600271Y969161D01*
G01X599795Y969464D01*
G01X599405Y969334D01*
G01X596808Y967256D01*
G01X594037Y965178D01*
G01X593734Y964832D01*
G01X593863Y964485D01*
G01X594383Y963619D01*
G01X595076Y962753D01*
G01X598539Y959290D01*
G01X599405Y958597D01*
G01X600618Y957558D01*
G01X604081Y955133D01*
G01X605813Y954094D01*
G01X608584Y952709D01*
G01X610143Y952016D01*
G01X611528Y951497D01*
G01X612740Y950977D01*
G01X614299Y950458D01*
G01X616377Y949938D01*
G01X617936Y949418D01*
G01X617936Y949418D01*
G01X622785Y948726D01*
G01X629019Y948553D01*
G01X635600Y948726D01*
G01X636986Y949072D01*
G01X639410Y949418D01*
G01X640969Y949765D01*
G01X643220Y950284D01*
G01X645472Y950977D01*
G01X647550Y951670D01*
G01X649108Y952363D01*
G01X652226Y953921D01*
G01X653958Y954960D01*
G01X655516Y955999D01*
G01X656728Y956865D01*
G01X657594Y957558D01*
G01X658807Y958597D01*
G01X660192Y959636D01*
G01X662790Y962234D01*
G01X664868Y964832D01*
G01X665734Y966044D01*
G01X666773Y967603D01*
G01X667639Y968988D01*
G01X668332Y970200D01*
G01X669717Y972971D01*
G01X670385Y974530D01*
G01X724096Y974530D01*
G01X724269Y971239D01*
G01X724616Y969161D01*
G01X725135Y966910D01*
G01X725828Y965178D01*
G01X726521Y963619D01*
G01X727213Y962407D01*
G01X727906Y961368D01*
G01X728772Y960156D01*
G01X729811Y958943D01*
G01X732409Y956346D01*
G01X733621Y955307D01*
G01X735180Y954268D01*
G01X736738Y953402D01*
G01X738297Y952709D01*
G01X740029Y952016D01*
G01X741588Y951497D01*
G01X741588Y951497D01*
G01X745398Y950804D01*
G01X759598Y950631D01*
G01X773280Y950631D01*
G01X773280Y970893D01*
G01X790944Y970893D01*
G01X791118Y967429D01*
G01X791464Y965698D01*
G01X791983Y963619D01*
G01X792676Y961888D01*
G01X793369Y960502D01*
G01X794235Y959117D01*
G01X795101Y957904D01*
G01X797179Y955307D01*
G01X798045Y954441D01*
G01X799777Y953055D01*
G01X800989Y952189D01*
G01X802374Y951323D01*
G01X803587Y950631D01*
G01X804799Y950111D01*
G01X806184Y949592D01*
G01X808089Y949072D01*
G01X808089Y949072D01*
G01X809821Y948726D01*
G01X814151Y948553D01*
G01X819173Y948899D01*
G01X821424Y949592D01*
G01X823503Y950284D01*
G01X824888Y950977D01*
G01X826100Y951670D01*
G01X827659Y952536D01*
G01X828871Y953402D01*
G01X830603Y954787D01*
G01X833201Y957385D01*
G01X834586Y959117D01*
G01X835452Y960329D01*
G01X836491Y961888D01*
G01X837530Y963619D01*
G01X838396Y965005D01*
G01X838396Y965871D01*
G01X837184Y966737D01*
G01X835798Y967603D01*
G01X834586Y968295D01*
G01X833547Y968988D01*
G01X832508Y969508D01*
G01X831642Y969508D01*
G01X830949Y968468D01*
G01X829910Y966737D01*
G01X829044Y965524D01*
G01X828525Y964658D01*
G01X826447Y962061D01*
G01X824715Y960329D01*
G01X823849Y959636D01*
G01X822637Y958770D01*
G01X821251Y957904D01*
G01X819866Y957385D01*
G01X818307Y956865D01*
G01X816922Y956519D01*
G01X815709Y956346D01*
G01X814843Y956346D01*
G01X813458Y956519D01*
G01X811207Y956865D01*
G01X809475Y957385D01*
G01X808089Y957904D01*
G01X806358Y958770D01*
G01X805145Y959636D01*
G01X804279Y960156D01*
G01X803413Y960848D01*
G01X802374Y962234D01*
G01X801335Y963793D01*
G01X800643Y965005D01*
G01X800123Y966390D01*
G01X799777Y967776D01*
G01X799603Y969681D01*
G01X799777Y971586D01*
G01X799950Y972798D01*
G01X800296Y974183D01*
G01X800989Y975742D01*
G01X801855Y977474D01*
G01X803067Y979206D01*
G01X804106Y980591D01*
G01X810168Y986653D01*
G01X811033Y987345D01*
G01X812246Y988384D01*
G01X813978Y989770D01*
G01X815363Y990809D01*
G01X816229Y991502D01*
G01X817095Y992021D01*
G01X823156Y996870D01*
G01X824022Y997736D01*
G01X825754Y999122D01*
G01X828698Y1002066D01*
G01X829910Y1003798D01*
G01X830776Y1005010D01*
G01X831469Y1006222D01*
G01X832162Y1007954D01*
G01X832854Y1010032D01*
G01X833374Y1011764D01*
G01X833547Y1014535D01*
G01X833374Y1017998D01*
G01X833028Y1019730D01*
G01X832681Y1021116D01*
G01X832162Y1022674D01*
G01X831642Y1023887D01*
G01X830949Y1025099D01*
G01X829910Y1026658D01*
G01X829044Y1027870D01*
G01X828352Y1028736D01*
G01X826620Y1030121D01*
G01X825581Y1030987D01*
G01X824195Y1031853D01*
G01X823260Y1032373D01*
G01X850519Y1032373D01*
G01X850519Y1005529D01*
G01X850692Y978167D01*
G01X850865Y976435D01*
G01X851038Y974357D01*
G01X851731Y969508D01*
G01X852078Y968122D01*
G01X852424Y966563D01*
G01X852943Y964832D01*
G01X853636Y963100D01*
G01X854502Y961195D01*
G01X855541Y959636D01*
G01X856407Y958424D01*
G01X857793Y956692D01*
G01X859524Y954960D01*
G01X861256Y953575D01*
G01X862468Y952536D01*
G01X864200Y951497D01*
G01X865759Y950631D01*
G01X868530Y949592D01*
G01X870435Y949072D01*
G01X870435Y949072D01*
G01X872167Y948726D01*
G01X877016Y948553D01*
G01X881865Y948726D01*
G01X884636Y949418D01*
G01X886194Y949765D01*
G01X888099Y950284D01*
G01X891217Y951670D01*
G01X892775Y952536D01*
G01X894334Y953575D01*
G01X895546Y954441D01*
G01X896412Y955133D01*
G01X899356Y958078D01*
G01X900395Y959463D01*
G01X901088Y960502D01*
G01X901781Y961714D01*
G01X903166Y964832D01*
G01X903686Y966563D01*
G01X904032Y968122D01*
G01X904378Y970547D01*
G01X904725Y975396D01*
G01X904825Y992021D01*
G01X950618Y992021D01*
G01X950791Y984055D01*
G01X951138Y980591D01*
G01X951484Y977820D01*
G01X952177Y974357D01*
G01X952350Y973144D01*
G01X952696Y971759D01*
G01X953735Y968295D01*
G01X954428Y966563D01*
G01X955121Y965005D01*
G01X956679Y961888D01*
G01X957545Y960502D01*
G01X958238Y959463D01*
G01X958931Y958597D01*
G01X959797Y957385D01*
G01X960836Y956173D01*
G01X962568Y954441D01*
G01X963780Y953575D01*
G01X965338Y952536D01*
G01X966551Y951670D01*
G01X967590Y951150D01*
G01X971227Y949592D01*
G01X972958Y949072D01*
G01X972958Y949072D01*
G01X974690Y948726D01*
G01X979020Y948553D01*
G01X983003Y948726D01*
G01X986467Y949592D01*
G01X988198Y950284D01*
G01X989757Y950977D01*
G01X992182Y952363D01*
G01X993221Y953055D01*
G01X995818Y955133D01*
G01X997031Y956346D01*
G01X998416Y958078D01*
G01X999628Y959809D01*
G01X1000668Y961541D01*
G01X1001533Y962927D01*
G01X1002226Y964485D01*
G01X1003612Y967949D01*
G01X1004131Y969508D01*
G01X1004824Y972278D01*
G01X1005517Y976088D01*
G01X1005863Y978513D01*
G01X1006209Y982323D01*
G01X1006383Y990982D01*
G01X1006209Y999641D01*
G01X1005863Y1003451D01*
G01X1005517Y1006222D01*
G01X1005170Y1008300D01*
G01X1004651Y1011071D01*
G01X1004131Y1012803D01*
G01X1003785Y1014188D01*
G01X1003265Y1015747D01*
G01X1002746Y1017133D01*
G01X1002226Y1018345D01*
G01X1000841Y1021116D01*
G01X999975Y1022501D01*
G01X998936Y1024060D01*
G01X997723Y1025618D01*
G01X996684Y1026831D01*
G01X995992Y1027697D01*
G01X995126Y1028563D01*
G01X994260Y1029255D01*
G01X993048Y1030121D01*
G01X991316Y1031160D01*
G01X989930Y1032026D01*
G01X989151Y1032373D01*
G01X1036170Y1032373D01*
G01X1036170Y950631D01*
G01X1044483Y950631D01*
G01X1044483Y975569D01*
G01X1078080Y975569D01*
G01X1078253Y971586D01*
G01X1078599Y969854D01*
G01X1079119Y967603D01*
G01X1079812Y965524D01*
G01X1080504Y963966D01*
G01X1081197Y962580D01*
G01X1082063Y961022D01*
G01X1082929Y959636D01*
G01X1085527Y956519D01*
G01X1086393Y955653D01*
G01X1088124Y954268D01*
G01X1089337Y953228D01*
G01X1091068Y952189D01*
G01X1092627Y951323D01*
G01X1094186Y950631D01*
G01X1096091Y949938D01*
G01X1097649Y949418D01*
G01X1097649Y949418D01*
G01X1101113Y948726D01*
G01X1105789Y948553D01*
G01X1110465Y948726D01*
G01X1111504Y949072D01*
G01X1112716Y949245D01*
G01X1114102Y949592D01*
G01X1115660Y950111D01*
G01X1117046Y950631D01*
G01X1120163Y952189D01*
G01X1121722Y953228D01*
G01X1123280Y954441D01*
G01X1124666Y955480D01*
G01X1126398Y957558D01*
G01X1127437Y958770D01*
G01X1128303Y959983D01*
G01X1128995Y961195D01*
G01X1130381Y963966D01*
G01X1131073Y965871D01*
G01X1132286Y969508D01*
G01X1132632Y971239D01*
G01X1132805Y972452D01*
G01X1128995Y972452D01*
G01X1126008Y972278D01*
G01X1124666Y971759D01*
G01X1123973Y970027D01*
G01X1123453Y968468D01*
G01X1122761Y967083D01*
G01X1122068Y965524D01*
G01X1121375Y964312D01*
G01X1120856Y963273D01*
G01X1120163Y962407D01*
G01X1118085Y960329D01*
G01X1115487Y958597D01*
G01X1114448Y958078D01*
G01X1113063Y957558D01*
G01X1111504Y957038D01*
G01X1110118Y956692D01*
G01X1106655Y956346D01*
G01X1105789Y956346D01*
G01X1103884Y956519D01*
G01X1101806Y956692D01*
G01X1100247Y957038D01*
G01X1098169Y957558D01*
G01X1096610Y958251D01*
G01X1095225Y958943D01*
G01X1094013Y959636D01*
G01X1093147Y960156D01*
G01X1092281Y960848D01*
G01X1090203Y962927D01*
G01X1089163Y964312D01*
G01X1088471Y965178D01*
G01X1087778Y966390D01*
G01X1087085Y967949D01*
G01X1086566Y969508D01*
G01X1086219Y970893D01*
G01X1086046Y973664D01*
G01X1086219Y976435D01*
G01X1141291Y976435D01*
G01X1141291Y975049D01*
G01X1141638Y971239D01*
G01X1141984Y969334D01*
G01X1142503Y967256D01*
G01X1143023Y965871D01*
G01X1143543Y964658D01*
G01X1144928Y961888D01*
G01X1145794Y960502D01*
G01X1147006Y958770D01*
G01X1148045Y957385D01*
G01X1149777Y955653D01*
G01X1151509Y954268D01*
G01X1152721Y953228D01*
G01X1154280Y952189D01*
G01X1155838Y951323D01*
G01X1157570Y950631D01*
G01X1159475Y949938D01*
G01X1161034Y949418D01*
G01X1161034Y949418D01*
G01X1164498Y948726D01*
G01X1169173Y948553D01*
G01X1173503Y948726D01*
G01X1175062Y949072D01*
G01X1177486Y949592D01*
G01X1179564Y950284D01*
G01X1181123Y950977D01*
G01X1182508Y951670D01*
G01X1184067Y952536D01*
G01X1185626Y953575D01*
G01X1186838Y954614D01*
G01X1187704Y955307D01*
G01X1188570Y956173D01*
G01X1189436Y957212D01*
G01X1190821Y958943D01*
G01X1191687Y960156D01*
G01X1193073Y962580D01*
G01X1193765Y964139D01*
G01X1194458Y965871D01*
G01X1195151Y968122D01*
G01X1195670Y969854D01*
G01X1196017Y971413D01*
G01X1196190Y972452D01*
G01X1192380Y972452D01*
G01X1188223Y972105D01*
G01X1187531Y970720D01*
G01X1186838Y968642D01*
G01X1186145Y967083D01*
G01X1185453Y965698D01*
G01X1184760Y964485D01*
G01X1184240Y963446D01*
G01X1183548Y962407D01*
G01X1181816Y960675D01*
G01X1180950Y959983D01*
G01X1179911Y959290D01*
G01X1178698Y958597D01*
G01X1177659Y958078D01*
G01X1176447Y957558D01*
G01X1174888Y957038D01*
G01X1173503Y956692D01*
G01X1170039Y956346D01*
G01X1169173Y956346D01*
G01X1167442Y956519D01*
G01X1165190Y956692D01*
G01X1163458Y957038D01*
G01X1161553Y957558D01*
G01X1159995Y958251D01*
G01X1158609Y958943D01*
G01X1156878Y959983D01*
G01X1155492Y961022D01*
G01X1153760Y962753D01*
G01X1152721Y963966D01*
G01X1151682Y965524D01*
G01X1150816Y967083D01*
G01X1150123Y968988D01*
G01X1149604Y970547D01*
G01X1149431Y973491D01*
G01X1149604Y976781D01*
G01X1150297Y979552D01*
G01X1150816Y980938D01*
G01X1151509Y982323D01*
G01X1152202Y983535D01*
G01X1154280Y986133D01*
G01X1155146Y986999D01*
G01X1156358Y987865D01*
G01X1157743Y988731D01*
G01X1159302Y989597D01*
G01X1161207Y990463D01*
G01X1163112Y990982D01*
G01X1164498Y991328D01*
G01X1166922Y991675D01*
G01X1172118Y992194D01*
G01X1173330Y992194D01*
G01X1173330Y999814D01*
G01X1172118Y999814D01*
G01X1170386Y999988D01*
G01X1169000Y1000161D01*
G01X1166922Y1000507D01*
G01X1164671Y1001200D01*
G01X1162766Y1001893D01*
G01X1161034Y1002758D01*
G01X1159302Y1003798D01*
G01X1158090Y1004837D01*
G01X1157224Y1005703D01*
G01X1156358Y1006742D01*
G01X1155492Y1008300D01*
G01X1154799Y1009859D01*
G01X1154453Y1011071D01*
G01X1154280Y1012803D01*
G01X1154453Y1014881D01*
G01X1155146Y1017652D01*
G01X1155665Y1018864D01*
G01X1156185Y1019903D01*
G01X1156878Y1020943D01*
G01X1159475Y1023540D01*
G01X1160688Y1024406D01*
G01X1161727Y1025099D01*
G01X1163458Y1025792D01*
G01X1165190Y1026311D01*
G01X1168654Y1026658D01*
G01X1170039Y1026658D01*
G01X1172118Y1026311D01*
G01X1174369Y1025792D01*
G01X1176101Y1025099D01*
G01X1177313Y1024579D01*
G01X1178179Y1023887D01*
G01X1180257Y1022155D01*
G01X1181296Y1020769D01*
G01X1182335Y1019211D01*
G01X1183028Y1017998D01*
G01X1184067Y1015920D01*
G01X1184587Y1014535D01*
G01X1184760Y1013669D01*
G01X1188916Y1013669D01*
G01X1193073Y1013842D01*
G01X1192899Y1015228D01*
G01X1192380Y1017133D01*
G01X1191860Y1018518D01*
G01X1191341Y1019730D01*
G01X1189955Y1022501D01*
G01X1189263Y1023713D01*
G01X1188570Y1024753D01*
G01X1187704Y1025965D01*
G01X1186665Y1027177D01*
G01X1184587Y1029255D01*
G01X1183201Y1030294D01*
G01X1182335Y1030987D01*
G01X1181123Y1031680D01*
G01X1179738Y1032373D01*
G01X1178525Y1032892D01*
G01X1177140Y1033412D01*
G01X1175408Y1033931D01*
G01X1173849Y1034278D01*
G01X1170213Y1034451D01*
G01X1165883Y1034278D01*
G01X1163805Y1033931D01*
G01X1161900Y1033412D01*
G01X1159822Y1032719D01*
G01X1158263Y1032026D01*
G01X1155838Y1030641D01*
G01X1154799Y1030121D01*
G01X1153933Y1029428D01*
G01X1152894Y1028563D01*
G01X1152028Y1027697D01*
G01X1151336Y1026831D01*
G01X1150123Y1025618D01*
G01X1149084Y1024233D01*
G01X1148392Y1023194D01*
G01X1147699Y1021808D01*
G01X1147006Y1020250D01*
G01X1146487Y1018691D01*
G01X1146140Y1017306D01*
G01X1145794Y1014188D01*
G01X1145794Y1013323D01*
G01X1145967Y1012283D01*
G01X1146140Y1010378D01*
G01X1146487Y1008647D01*
G01X1146833Y1007434D01*
G01X1147353Y1006222D01*
G01X1148045Y1004837D01*
G01X1149084Y1003105D01*
G01X1150123Y1001719D01*
G01X1152721Y999122D01*
G01X1154107Y998083D01*
G01X1155492Y997217D01*
G01X1155795Y996957D01*
G01X1155665Y996524D01*
G01X1154453Y995658D01*
G01X1152721Y994792D01*
G01X1151509Y993926D01*
G01X1150643Y993407D01*
G01X1149777Y992714D01*
G01X1146313Y989250D01*
G01X1145621Y988384D01*
G01X1144928Y987345D01*
G01X1144062Y985960D01*
G01X1143196Y984228D01*
G01X1142503Y982496D01*
G01X1141984Y980938D01*
G01X1141638Y979552D01*
G01X1141464Y978167D01*
G01X1141291Y976435D01*
G01X1086219Y976435D01*
G01X1086393Y977647D01*
G01X1086739Y979033D01*
G01X1087258Y980418D01*
G01X1087778Y981630D01*
G01X1088471Y982843D01*
G01X1089510Y984401D01*
G01X1090549Y985787D01*
G01X1091415Y986653D01*
G01X1092800Y987692D01*
G01X1094359Y988731D01*
G01X1095918Y989597D01*
G01X1097476Y990289D01*
G01X1099381Y990809D01*
G01X1101113Y991328D01*
G01X1103538Y991675D01*
G01X1108733Y992194D01*
G01X1109945Y992194D01*
G01X1109945Y996004D01*
G01X1109772Y998862D01*
G01X1109253Y999814D01*
G01X1107001Y999988D01*
G01X1104577Y1000334D01*
G01X1101806Y1001027D01*
G01X1100247Y1001546D01*
G01X1098688Y1002239D01*
G01X1097476Y1002932D01*
G01X1096437Y1003451D01*
G01X1095398Y1004144D01*
G01X1093320Y1006222D01*
G01X1092281Y1007954D01*
G01X1091588Y1009513D01*
G01X1091068Y1011591D01*
G01X1091068Y1014188D01*
G01X1091415Y1016267D01*
G01X1091934Y1017998D01*
G01X1093147Y1020423D01*
G01X1093839Y1021289D01*
G01X1095918Y1023367D01*
G01X1097476Y1024406D01*
G01X1098688Y1025099D01*
G01X1100247Y1025792D01*
G01X1101806Y1026311D01*
G01X1105269Y1026658D01*
G01X1106135Y1026658D01*
G01X1107521Y1026484D01*
G01X1109772Y1026138D01*
G01X1111850Y1025445D01*
G01X1113409Y1024753D01*
G01X1114448Y1024060D01*
G01X1115660Y1023194D01*
G01X1117219Y1021808D01*
G01X1118431Y1020077D01*
G01X1119297Y1018691D01*
G01X1119990Y1017479D01*
G01X1120683Y1016093D01*
G01X1121375Y1014535D01*
G01X1121722Y1013669D01*
G01X1130034Y1013669D01*
G01X1129861Y1014362D01*
G01X1129342Y1016093D01*
G01X1128649Y1018172D01*
G01X1127956Y1019903D01*
G01X1127263Y1021289D01*
G01X1125878Y1023713D01*
G01X1125185Y1024753D01*
G01X1124319Y1025965D01*
G01X1123280Y1027177D01*
G01X1121202Y1029255D01*
G01X1119817Y1030294D01*
G01X1118951Y1030987D01*
G01X1117738Y1031680D01*
G01X1116353Y1032373D01*
G01X1115141Y1032892D01*
G01X1113755Y1033412D01*
G01X1112023Y1033931D01*
G01X1110465Y1034278D01*
G01X1107001Y1034451D01*
G01X1102498Y1034278D01*
G01X1100420Y1033931D01*
G01X1099035Y1033585D01*
G01X1097476Y1033065D01*
G01X1096091Y1032546D01*
G01X1094878Y1032026D01*
G01X1092454Y1030641D01*
G01X1091415Y1029948D01*
G01X1089683Y1028563D01*
G01X1087085Y1025965D01*
G01X1086393Y1025099D01*
G01X1085527Y1023887D01*
G01X1084661Y1022328D01*
G01X1083968Y1020943D01*
G01X1083275Y1019038D01*
G01X1082756Y1017306D01*
G01X1082583Y1014362D01*
G01X1082756Y1010725D01*
G01X1083102Y1008993D01*
G01X1083448Y1007608D01*
G01X1083968Y1006222D01*
G01X1084661Y1004837D01*
G01X1085700Y1003105D01*
G01X1086739Y1001719D01*
G01X1089337Y999122D01*
G01X1090203Y998429D01*
G01X1091415Y997563D01*
G01X1092454Y996697D01*
G01X1092367Y996351D01*
G01X1091761Y996004D01*
G01X1090376Y995312D01*
G01X1088990Y994446D01*
G01X1087258Y993233D01*
G01X1085873Y992194D01*
G01X1083275Y989597D01*
G01X1082236Y988211D01*
G01X1081197Y986653D01*
G01X1080331Y985094D01*
G01X1079465Y983362D01*
G01X1078773Y981284D01*
G01X1078253Y979552D01*
G01X1078080Y975569D01*
G01X1044483Y975569D01*
G01X1044483Y1024406D01*
G01X1050890Y1024406D01*
G01X1055610Y1024536D01*
G01X1056952Y1024926D01*
G01X1053488Y1030468D01*
G01X1052795Y1031680D01*
G01X1050501Y1032199D01*
G01X1044309Y1032373D01*
G01X1044309Y1032373D01*
G01X1036170Y1032373D01*
G01X989151Y1032373D01*
G01X988372Y1032719D01*
G01X986640Y1033412D01*
G01X984908Y1033931D01*
G01X983349Y1034278D01*
G01X979193Y1034451D01*
G01X974344Y1034104D01*
G01X972266Y1033585D01*
G01X970707Y1033065D01*
G01X969322Y1032546D01*
G01X968109Y1032026D01*
G01X966897Y1031333D01*
G01X965338Y1030468D01*
G01X964126Y1029602D01*
G01X963260Y1029082D01*
G01X962394Y1028389D01*
G01X960316Y1026311D01*
G01X958931Y1024579D01*
G01X957718Y1022848D01*
G01X956853Y1021462D01*
G01X955467Y1019038D01*
G01X954774Y1017479D01*
G01X953389Y1014015D01*
G01X952869Y1012457D01*
G01X952177Y1009686D01*
G01X951484Y1006222D01*
G01X951138Y1003451D01*
G01X950791Y999988D01*
G01X950618Y992021D01*
G01X904825Y992021D01*
G01X904898Y1004144D01*
G01X904898Y1032373D01*
G01X896585Y1032373D01*
G01X896585Y1003105D01*
G01X896412Y972971D01*
G01X896066Y970893D01*
G01X895546Y968468D01*
G01X894853Y966390D01*
G01X894161Y965005D01*
G01X893295Y963619D01*
G01X892256Y962407D01*
G01X890524Y960675D01*
G01X889312Y959809D01*
G01X887753Y958943D01*
G01X886368Y958251D01*
G01X885155Y957731D01*
G01X883770Y957212D01*
G01X882038Y956692D01*
G01X880479Y956346D01*
G01X878401Y956173D01*
G01X875284Y956346D01*
G01X873206Y956692D01*
G01X871820Y957038D01*
G01X870435Y957558D01*
G01X869049Y958251D01*
G01X867491Y959117D01*
G01X866105Y959983D01*
G01X865066Y960848D01*
G01X863334Y962580D01*
G01X862642Y963446D01*
G01X861949Y964485D01*
G01X861256Y965698D01*
G01X860563Y967083D01*
G01X859871Y968988D01*
G01X859351Y970547D01*
G01X859005Y973664D01*
G01X858832Y1003278D01*
G01X858832Y1032373D01*
G01X850519Y1032373D01*
G01X823260Y1032373D01*
G01X822637Y1032719D01*
G01X821078Y1033412D01*
G01X819346Y1033931D01*
G01X817788Y1034278D01*
G01X814324Y1034451D01*
G01X810514Y1034278D01*
G01X808782Y1033931D01*
G01X806877Y1033412D01*
G01X804972Y1032719D01*
G01X803240Y1031853D01*
G01X801855Y1030987D01*
G01X800816Y1030294D01*
G01X799084Y1028909D01*
G01X794754Y1024579D01*
G01X792676Y1021808D01*
G01X792546Y1021289D01*
G01X792849Y1020769D01*
G01X793888Y1019903D01*
G01X795620Y1018518D01*
G01X797006Y1017479D01*
G01X798391Y1016613D01*
G01X799257Y1016613D01*
G01X799950Y1017479D01*
G01X800816Y1018518D01*
G01X802894Y1020943D01*
G01X804626Y1022674D01*
G01X805492Y1023367D01*
G01X806531Y1024060D01*
G01X807743Y1024753D01*
G01X809302Y1025445D01*
G01X810860Y1025965D01*
G01X813458Y1026138D01*
G01X816748Y1025792D01*
G01X818827Y1025099D01*
G01X820212Y1024406D01*
G01X821598Y1023367D01*
G01X823156Y1021808D01*
G01X824195Y1020250D01*
G01X824715Y1019038D01*
G01X825061Y1017479D01*
G01X825061Y1015228D01*
G01X824715Y1013149D01*
G01X824195Y1011244D01*
G01X823329Y1009339D01*
G01X822117Y1007608D01*
G01X821078Y1006222D01*
G01X818480Y1003624D01*
G01X817095Y1002585D01*
G01X815363Y1001200D01*
G01X811207Y998083D01*
G01X808782Y996351D01*
G01X807916Y995658D01*
G01X807050Y995138D01*
G01X804453Y993060D01*
G01X803587Y992194D01*
G01X801855Y990809D01*
G01X797179Y986133D01*
G01X795793Y984401D01*
G01X794754Y982843D01*
G01X793888Y981457D01*
G01X793023Y979898D01*
G01X792330Y978167D01*
G01X791637Y976088D01*
G01X791118Y974357D01*
G01X790944Y970893D01*
G01X773280Y970893D01*
G01X773280Y1032373D01*
G01X762889Y1032373D01*
G01X751286Y1032199D01*
G01X748515Y1031853D01*
G01X746437Y1031507D01*
G01X745051Y1031160D01*
G01X743319Y1030641D01*
G01X741761Y1029948D01*
G01X740375Y1029255D01*
G01X739163Y1028563D01*
G01X736392Y1026484D01*
G01X735526Y1025618D01*
G01X734660Y1024406D01*
G01X733621Y1022848D01*
G01X732755Y1021462D01*
G01X732236Y1020250D01*
G01X731716Y1018864D01*
G01X731197Y1017133D01*
G01X730850Y1015574D01*
G01X730677Y1012976D01*
G01X730850Y1010378D01*
G01X731197Y1008647D01*
G01X731716Y1006395D01*
G01X732409Y1004490D01*
G01X733275Y1002758D01*
G01X734314Y1001200D01*
G01X735180Y999988D01*
G01X736912Y998256D01*
G01X738643Y996870D01*
G01X739856Y996004D01*
G01X740462Y995658D01*
G01X740548Y995312D01*
G01X739683Y994619D01*
G01X738124Y993926D01*
G01X736392Y993233D01*
G01X734660Y992368D01*
G01X733102Y991328D01*
G01X731543Y990116D01*
G01X730158Y989077D01*
G01X729292Y988211D01*
G01X728253Y986826D01*
G01X726521Y984228D01*
G01X725828Y982843D01*
G01X725135Y981111D01*
G01X724616Y979379D01*
G01X724269Y977820D01*
G01X724096Y974530D01*
G01X670385Y974530D01*
G01X670756Y975396D01*
G01X671276Y976781D01*
G01X671795Y978686D01*
G01X672315Y980245D01*
G01X673008Y983708D01*
G01X673116Y984574D01*
G01X683572Y984574D01*
G01X683572Y977993D01*
G01X714052Y977993D01*
G01X714052Y984574D01*
G01X714052Y984574D01*
G01X683572Y984574D01*
G01X673116Y984574D01*
G01X673354Y986479D01*
G01X673527Y990982D01*
G01X673354Y996178D01*
G01X673008Y998602D01*
G01X672661Y1000680D01*
G01X672315Y1002066D01*
G01X671968Y1003798D01*
G01X671449Y1005703D01*
G01X670063Y1009166D01*
G01X669371Y1010725D01*
G01X668505Y1012457D01*
G01X667466Y1014188D01*
G01X666427Y1015747D01*
G01X665561Y1016959D01*
G01X663483Y1019730D01*
G01X660019Y1023194D01*
G01X657941Y1024926D01*
G01X656728Y1025965D01*
G01X654997Y1027177D01*
G01X653438Y1028216D01*
G01X651879Y1029082D01*
G01X650494Y1029948D01*
G01X647377Y1031333D01*
G01X645991Y1031853D01*
G01X642874Y1032892D01*
G01X641488Y1033238D01*
G01X638025Y1033931D01*
G01X635600Y1034278D01*
G01X630232Y1034451D01*
G01X623824Y1034278D01*
G01X621399Y1033931D01*
G01X617936Y1033238D01*
G01X615165Y1032546D01*
G01X612048Y1031507D01*
G01X610662Y1030987D01*
G01X607891Y1029602D01*
G01X606679Y1028909D01*
G01X605120Y1028043D01*
G01X603562Y1027004D01*
G01X602349Y1026138D01*
G01X599578Y1024060D01*
G01X596115Y1020596D01*
G01X594383Y1018518D01*
G01X593690Y1017652D01*
G01X586590Y1017652D01*
G01X586590Y1061121D01*
G01X1200000Y1061121D01*
G01X1200000Y925000D01*
G01X586590Y925000D01*
G37*
G36*
G01X762543Y990116D02*
G01X765313Y990116D01*
G01X765313Y974530D01*
G01X765140Y958770D01*
G01X757867Y958597D01*
G01X749208Y958770D01*
G01X746437Y959117D01*
G01X744705Y959463D01*
G01X743146Y959809D01*
G01X741241Y960502D01*
G01X738470Y962234D01*
G01X737258Y963273D01*
G01X735526Y965005D01*
G01X734833Y965871D01*
G01X734141Y967083D01*
G01X733448Y968642D01*
G01X732928Y970200D01*
G01X732582Y971932D01*
G01X732582Y974357D01*
G01X732928Y976781D01*
G01X733275Y978167D01*
G01X733794Y979552D01*
G01X734487Y980938D01*
G01X735353Y982323D01*
G01X736392Y983535D01*
G01X738470Y985613D01*
G01X740029Y986653D01*
G01X741241Y987345D01*
G01X742627Y988038D01*
G01X744012Y988558D01*
G01X747129Y989250D01*
G01X749900Y989597D01*
G01X759252Y989943D01*
G01X762543Y990116D01*
G37*
G36*
G01X758040Y1024406D02*
G01X765313Y1024406D01*
G01X765313Y1011418D01*
G01X765140Y998256D01*
G01X762889Y998083D01*
G01X760291Y998256D01*
G01X757001Y998429D01*
G01X753364Y998602D01*
G01X751286Y998948D01*
G01X749034Y999468D01*
G01X747129Y1000161D01*
G01X745571Y1001027D01*
G01X744185Y1001893D01*
G01X742800Y1003105D01*
G01X741761Y1004490D01*
G01X740895Y1005703D01*
G01X740029Y1007434D01*
G01X739509Y1008993D01*
G01X739163Y1011418D01*
G01X739163Y1012283D01*
G01X739336Y1013323D01*
G01X739509Y1015228D01*
G01X740029Y1017133D01*
G01X740722Y1018518D01*
G01X741414Y1019557D01*
G01X742107Y1020423D01*
G01X742973Y1021289D01*
G01X743839Y1021982D01*
G01X745051Y1022674D01*
G01X746610Y1023367D01*
G01X748515Y1023887D01*
G01X750247Y1024233D01*
G01X758040Y1024406D01*
G37*
G36*
G01X469174Y968988D02*
G01X468481Y967256D01*
G01X467788Y965698D01*
G01X461554Y951150D01*
G01X460341Y950631D01*
G01X459605Y950847D01*
G01X459129Y951497D01*
G01X458436Y952882D01*
G01X456358Y957731D01*
G01X454973Y960848D01*
G01X452894Y965698D01*
G01X451509Y968815D01*
G01X449431Y973664D01*
G01X448046Y976781D01*
G01X445967Y981630D01*
G01X444582Y984748D01*
G01X442504Y989597D01*
G01X441118Y992714D01*
G01X439040Y997563D01*
G01X437654Y1000680D01*
G01X436616Y1003105D01*
G01X435230Y1006222D01*
G01X433152Y1011071D01*
G01X431766Y1014188D01*
G01X429688Y1019038D01*
G01X428303Y1022155D01*
G01X426224Y1027004D01*
G01X424839Y1030121D01*
G01X424319Y1031333D01*
G01X424146Y1032199D01*
G01X428476Y1032373D01*
G01X431766Y1032199D01*
G01X432979Y1031680D01*
G01X435576Y1025618D01*
G01X436962Y1022501D01*
G01X439040Y1017652D01*
G01X440426Y1014535D01*
G01X441464Y1012110D01*
G01X442850Y1008993D01*
G01X444928Y1004144D01*
G01X446314Y1001027D01*
G01X447353Y998602D01*
G01X448738Y995485D01*
G01X449777Y993060D01*
G01X451163Y989943D01*
G01X453241Y985094D01*
G01X454626Y981977D01*
G01X455666Y979552D01*
G01X457051Y976435D01*
G01X458090Y974010D01*
G01X459476Y970893D01*
G01X459995Y970027D01*
G01X460514Y970027D01*
G01X461207Y971413D01*
G01X461900Y972971D01*
G01X474369Y1002066D01*
G01X475754Y1005183D01*
G01X486665Y1030641D01*
G01X487358Y1031853D01*
G01X488786Y1032243D01*
G01X492034Y1032373D01*
G01X496190Y1032373D01*
G01X496017Y1031680D01*
G01X495497Y1030294D01*
G01X494804Y1028736D01*
G01X494112Y1027004D01*
G01X492726Y1023887D01*
G01X492034Y1022155D01*
G01X490648Y1019038D01*
G01X489956Y1017306D01*
G01X488570Y1014188D01*
G01X487877Y1012457D01*
G01X486492Y1009339D01*
G01X485799Y1007608D01*
G01X484414Y1004490D01*
G01X483721Y1002758D01*
G01X482336Y999641D01*
G01X481643Y997909D01*
G01X480257Y994792D01*
G01X479564Y993060D01*
G01X478179Y989943D01*
G01X477486Y988211D01*
G01X476101Y985094D01*
G01X475408Y983362D01*
G01X474023Y980245D01*
G01X473330Y978513D01*
G01X471944Y975396D01*
G01X471252Y973664D01*
G01X469174Y968988D01*
G37*
G36*
G01X303785Y950631D02*
G01X302053Y949938D01*
G01X299975Y949245D01*
G01X298243Y948726D01*
G01X293914Y948553D01*
G01X289584Y948726D01*
G01X287852Y949072D01*
G01X285947Y949592D01*
G01X284389Y950284D01*
G01X282657Y950977D01*
G01X281098Y951843D01*
G01X279539Y952882D01*
G01X277808Y954094D01*
G01X274864Y957038D01*
G01X272786Y959809D01*
G01X272093Y960848D01*
G01X270707Y963273D01*
G01X270014Y964658D01*
G01X269322Y966390D01*
G01X268629Y967949D01*
G01X267590Y971413D01*
G01X267071Y973491D01*
G01X266724Y975396D01*
G01X266378Y977128D01*
G01X266031Y979552D01*
G01X265858Y981457D01*
G01X265685Y982669D01*
G01X265339Y988558D01*
G01X265209Y991155D01*
G01X273132Y991155D01*
G01X273305Y983362D01*
G01X273651Y980245D01*
G01X273998Y977820D01*
G01X274691Y974357D01*
G01X275210Y972798D01*
G01X275729Y970893D01*
G01X276249Y969508D01*
G01X276769Y968295D01*
G01X277461Y966737D01*
G01X278327Y965005D01*
G01X279020Y963793D01*
G01X280406Y962061D01*
G01X281098Y961368D01*
G01X281964Y960675D01*
G01X282830Y959809D01*
G01X283869Y958943D01*
G01X285254Y958078D01*
G01X286640Y957385D01*
G01X287852Y956865D01*
G01X289584Y956346D01*
G01X289584Y956346D01*
G01X291316Y955999D01*
G01X293914Y955826D01*
G01X296165Y955999D01*
G01X297551Y956346D01*
G01X299282Y956865D01*
G01X300494Y957385D01*
G01X301534Y957904D01*
G01X302746Y958770D01*
G01X304478Y959983D01*
G01X305690Y961195D01*
G01X307768Y963793D01*
G01X309846Y967429D01*
G01X310539Y969161D01*
G01X311059Y970547D01*
G01X311578Y972105D01*
G01X312098Y974357D01*
G01X312444Y976088D01*
G01X312791Y978513D01*
G01X313137Y981630D01*
G01X313483Y987518D01*
G01X313656Y991848D01*
G01X313483Y996178D01*
G01X313137Y1002066D01*
G01X312791Y1005183D01*
G01X312444Y1007608D01*
G01X312098Y1009166D01*
G01X311578Y1010898D01*
G01X311059Y1012457D01*
G01X310539Y1013842D01*
G01X309846Y1015401D01*
G01X309154Y1016786D01*
G01X308461Y1017998D01*
G01X307595Y1019211D01*
G01X305863Y1021289D01*
G01X304997Y1022155D01*
G01X303958Y1023021D01*
G01X302573Y1023887D01*
G01X301014Y1024753D01*
G01X299629Y1025445D01*
G01X298243Y1025965D01*
G01X296165Y1026484D01*
G01X293221Y1026831D01*
G01X290969Y1026658D01*
G01X289411Y1026311D01*
G01X287852Y1025792D01*
G01X286640Y1025272D01*
G01X285601Y1024753D01*
G01X283003Y1023021D01*
G01X280925Y1020943D01*
G01X279193Y1018864D01*
G01X278501Y1017825D01*
G01X277981Y1016613D01*
G01X277288Y1015228D01*
G01X275903Y1012110D01*
G01X275383Y1010378D01*
G01X275037Y1008993D01*
G01X274517Y1007261D01*
G01X273998Y1004490D01*
G01X273651Y1002066D01*
G01X273478Y1000334D01*
G01X273305Y998948D01*
G01X273132Y991155D01*
G01X265209Y991155D01*
G01X265166Y992021D01*
G01X265339Y995485D01*
G01X265685Y1001373D01*
G01X266031Y1004490D01*
G01X266724Y1008647D01*
G01X267071Y1010205D01*
G01X268109Y1013669D01*
G01X268629Y1015228D01*
G01X270188Y1018864D01*
G01X270881Y1020250D01*
G01X272612Y1023021D01*
G01X273478Y1024233D01*
G01X274517Y1025618D01*
G01X277461Y1028563D01*
G01X278847Y1029602D01*
G01X280579Y1030641D01*
G01X283003Y1032026D01*
G01X284562Y1032719D01*
G01X286294Y1033412D01*
G01X288545Y1033931D01*
G01X290277Y1034278D01*
G01X294260Y1034451D01*
G01X298243Y1034278D01*
G01X299802Y1033931D01*
G01X301361Y1033412D01*
G01X302573Y1032892D01*
G01X303958Y1032373D01*
G01X305517Y1031507D01*
G01X307249Y1030468D01*
G01X308981Y1029255D01*
G01X312444Y1025792D01*
G01X313310Y1024753D01*
G01X314176Y1023367D01*
G01X315215Y1021808D01*
G01X317466Y1017306D01*
G01X318159Y1015401D01*
G01X318852Y1013323D01*
G01X319371Y1011071D01*
G01X320064Y1007608D01*
G01X320411Y1005529D01*
G01X320584Y1003798D01*
G01X320757Y1002412D01*
G01X321103Y997909D01*
G01X321276Y990982D01*
G01X321103Y984055D01*
G01X320757Y979552D01*
G01X320411Y976781D01*
G01X319718Y972625D01*
G01X319198Y970893D01*
G01X318679Y968815D01*
G01X317120Y964658D01*
G01X316427Y963273D01*
G01X315561Y961714D01*
G01X313829Y958943D01*
G01X312964Y957731D01*
G01X309154Y953921D01*
G01X308288Y953228D01*
G01X307422Y952709D01*
G01X306383Y952016D01*
G01X305171Y951323D01*
G01X303785Y950631D01*
G37*
G36*
G01X344136Y950977D02*
G01X343271Y950284D01*
G01X342231Y949592D01*
G01X341192Y949072D01*
G01X339287Y948899D01*
G01X337382Y949072D01*
G01X336170Y949592D01*
G01X335131Y950284D01*
G01X334438Y950977D01*
G01X333572Y952189D01*
G01X332706Y954094D01*
G01X332360Y955999D01*
G01X332533Y957385D01*
G01X333053Y958770D01*
G01X333746Y959983D01*
G01X334438Y960675D01*
G01X335651Y961541D01*
G01X337556Y962407D01*
G01X339634Y962753D01*
G01X341366Y962407D01*
G01X342751Y961714D01*
G01X343963Y960848D01*
G01X345002Y959463D01*
G01X345695Y957731D01*
G01X346041Y955999D01*
G01X345868Y953921D01*
G01X345002Y952016D01*
G01X344136Y950977D01*
G37*
G36*
G01X403364Y1024926D02*
G01X402022Y1024536D01*
G01X397303Y1024406D01*
G01X390896Y1024406D01*
G01X390896Y950631D01*
G01X382583Y950631D01*
G01X382583Y1032373D01*
G01X390722Y1032373D01*
G01X396914Y1032199D01*
G01X399208Y1031680D01*
G01X400940Y1028909D01*
G01X401633Y1027697D01*
G01X403364Y1024926D01*
G37*
G36*
G01X809394Y492000D02*
G01X809394Y545492D01*
G01X818581Y545492D01*
G01X818697Y545027D01*
G01X819627Y543865D01*
G01X826837Y536655D01*
G01X828698Y535259D01*
G01X831489Y533398D01*
G01X832651Y532468D01*
G01X834280Y531538D01*
G01X836140Y530608D01*
G01X837768Y529677D01*
G01X839629Y528747D01*
G01X841489Y528049D01*
G01X843117Y527351D01*
G01X844978Y526654D01*
G01X847536Y525956D01*
G01X849629Y525258D01*
G01X854281Y524328D01*
G01X854281Y524328D01*
G01X858002Y523863D01*
G01X866375Y523630D01*
G01X874282Y523863D01*
G01X876608Y524328D01*
G01X879864Y524793D01*
G01X881725Y525258D01*
G01X884283Y525724D01*
G01X887074Y526421D01*
G01X889400Y527351D01*
G01X891958Y528282D01*
G01X893819Y529212D01*
G01X895912Y530142D01*
G01X898238Y531305D01*
G01X902424Y534096D01*
G01X904517Y535724D01*
G01X906378Y537120D01*
G01X912658Y543399D01*
G01X914518Y545725D01*
G01X916146Y548051D01*
G01X917309Y549679D01*
G01X920100Y554563D01*
G01X921030Y556656D01*
G01X921728Y558517D01*
G01X922426Y560145D01*
G01X923123Y562238D01*
G01X924519Y566889D01*
G01X924984Y568983D01*
G01X925449Y572239D01*
G01X925914Y576425D01*
G01X926147Y580844D01*
G01X925914Y585263D01*
G01X925449Y589914D01*
G01X924984Y593171D01*
G01X924519Y595264D01*
G01X923821Y598287D01*
G01X922891Y601078D01*
G01X921961Y603636D01*
G01X921030Y605730D01*
G01X918937Y609916D01*
G01X916611Y613637D01*
G01X915449Y615265D01*
G01X914518Y616661D01*
G01X913355Y618056D01*
G01X912192Y619219D01*
G01X910332Y621545D01*
G01X909169Y622708D01*
G01X906843Y624568D01*
G01X905680Y625731D01*
G01X904052Y627127D01*
G01X899401Y630383D01*
G01X897540Y631546D01*
G01X891958Y634337D01*
G01X889865Y635267D01*
G01X887772Y635964D01*
G01X885214Y636662D01*
G01X883120Y637360D01*
G01X878469Y638290D01*
G01X939171Y638290D01*
G01X940101Y636197D01*
G01X941032Y633406D01*
G01X942892Y628290D01*
G01X943823Y625499D01*
G01X944753Y623173D01*
G01X946148Y618987D01*
G01X947079Y616661D01*
G01X948009Y613870D01*
G01X949870Y608753D01*
G01X950800Y605962D01*
G01X951730Y603636D01*
G01X953126Y599450D01*
G01X954521Y595729D01*
G01X955219Y593636D01*
G01X956614Y589914D01*
G01X957312Y587821D01*
G01X958242Y585496D01*
G01X959173Y582705D01*
G01X961033Y577588D01*
G01X961964Y574797D01*
G01X962894Y572471D01*
G01X964289Y568285D01*
G01X965220Y565959D01*
G01X966150Y563168D01*
G01X968011Y558051D01*
G01X968941Y555261D01*
G01X969871Y552935D01*
G01X971267Y548748D01*
G01X972197Y546423D01*
G01X973127Y543632D01*
G01X974988Y538515D01*
G01X975918Y535724D01*
G01X976848Y533398D01*
G01X978244Y529212D01*
G01X979174Y526886D01*
G01X980104Y524095D01*
G01X981035Y521770D01*
G01X982430Y517583D01*
G01X983360Y515258D01*
G01X983360Y515258D01*
G01X984756Y511071D01*
G01X990338Y511071D01*
G01X995920Y511536D01*
G01X995454Y512932D01*
G01X994524Y515258D01*
G01X993594Y518048D01*
G01X991733Y523165D01*
G01X990803Y525956D01*
G01X989873Y528282D01*
G01X988477Y532468D01*
G01X987547Y534794D01*
G01X986617Y537585D01*
G01X984756Y542701D01*
G01X983826Y545492D01*
G01X982895Y547818D01*
G01X981500Y552004D01*
G01X980570Y554330D01*
G01X979639Y557121D01*
G01X977779Y562238D01*
G01X976848Y565029D01*
G01X975918Y567355D01*
G01X974523Y571541D01*
G01X973592Y573867D01*
G01X972662Y576658D01*
G01X970801Y581774D01*
G01X970646Y582239D01*
G01X1010339Y582239D01*
G01X1010572Y579681D01*
G01X1011037Y573634D01*
G01X1011502Y570843D01*
G01X1012200Y567122D01*
G01X1012898Y564796D01*
G01X1013363Y562936D01*
G01X1014060Y560842D01*
G01X1014991Y558517D01*
G01X1015921Y556424D01*
G01X1016851Y554563D01*
G01X1018014Y552470D01*
G01X1019177Y550609D01*
G01X1020107Y549214D01*
G01X1022433Y545958D01*
G01X1023829Y544330D01*
G01X1025224Y542469D01*
G01X1028713Y538980D01*
G01X1029178Y538050D01*
G01X1028015Y536422D01*
G01X1026154Y534096D01*
G01X1024759Y532236D01*
G01X1014526Y519444D01*
G01X1013828Y518281D01*
G01X1015282Y517758D01*
G01X1015282Y517758D01*
G01X1020107Y517583D01*
G01X1026620Y517583D01*
G01X1027783Y518979D01*
G01X1029876Y521537D01*
G01X1031271Y523398D01*
G01X1035923Y529212D01*
G01X1036853Y530608D01*
G01X1037435Y531247D01*
G01X1038248Y531305D01*
G01X1040342Y530375D01*
G01X1042435Y529212D01*
G01X1046621Y527351D01*
G01X1048482Y526654D01*
G01X1050808Y525956D01*
G01X1052901Y525258D01*
G01X1057087Y524328D01*
G01X1060808Y523863D01*
G01X1066855Y523630D01*
G01X1074298Y523863D01*
G01X1078019Y524328D01*
G01X1080345Y524793D01*
G01X1082903Y525258D01*
G01X1085694Y525956D01*
G01X1089880Y527351D01*
G01X1091973Y528282D01*
G01X1095695Y530142D01*
G01X1098951Y532003D01*
G01X1101276Y533398D01*
G01X1103137Y534794D01*
G01X1104300Y535724D01*
G01X1105928Y537120D01*
G01X1107556Y538283D01*
G01X1113138Y543865D01*
G01X1114068Y545027D01*
G01X1117557Y549912D01*
G01X1118952Y552237D01*
G01X1120115Y554098D01*
G01X1121976Y557819D01*
G01X1122673Y559680D01*
G01X1124069Y563866D01*
G01X1124767Y566657D01*
G01X1125464Y568983D01*
G01X1125930Y572704D01*
G01X1126395Y578751D01*
G01X1126627Y580379D01*
G01X1126395Y582007D01*
G01X1126162Y584333D01*
G01X1125930Y588054D01*
G01X1125464Y590845D01*
G01X1124534Y595496D01*
G01X1124069Y597357D01*
G01X1122673Y601543D01*
G01X1121976Y603404D01*
G01X1121046Y605497D01*
G01X1120115Y607358D01*
G01X1119185Y608986D01*
G01X1118022Y611311D01*
G01X1116859Y613172D01*
G01X1115929Y614567D01*
G01X1114766Y616196D01*
G01X1113138Y618289D01*
G01X1111743Y620149D01*
G01X1107091Y624801D01*
G01X1104765Y626661D01*
G01X1103137Y628057D01*
G01X1101044Y629452D01*
G01X1097323Y631778D01*
G01X1095229Y632941D01*
G01X1093369Y633871D01*
G01X1091276Y634802D01*
G01X1088950Y635732D01*
G01X1084764Y637127D01*
G01X1082205Y637825D01*
G01X1079879Y638290D01*
G01X1076623Y638755D01*
G01X1069879Y638988D01*
G01X1061739Y638755D01*
G01X1058483Y638290D01*
G01X1056157Y637825D01*
G01X1054296Y637360D01*
G01X1052668Y637127D01*
G01X1051040Y636662D01*
G01X1049180Y635964D01*
G01X1047086Y635267D01*
G01X1044993Y634337D01*
G01X1042667Y633406D01*
G01X1040342Y632243D01*
G01X1038016Y630848D01*
G01X1035923Y629452D01*
G01X1034295Y628290D01*
G01X1030574Y625499D01*
G01X1023364Y618289D01*
G01X1021968Y616428D01*
G01X1021038Y615265D01*
G01X1019875Y613637D01*
G01X1018712Y611777D01*
G01X1016851Y608521D01*
G01X1014991Y604799D01*
G01X1014293Y602939D01*
G01X1012898Y598752D01*
G01X1012200Y595961D01*
G01X1011502Y593636D01*
G01X1011037Y590380D01*
G01X1010572Y584798D01*
G01X1010339Y582239D01*
G01X970646Y582239D01*
G01X969871Y584565D01*
G01X968941Y586891D01*
G01X967545Y591077D01*
G01X966615Y593403D01*
G01X965685Y596194D01*
G01X963824Y601311D01*
G01X962894Y604102D01*
G01X961964Y606427D01*
G01X960568Y610614D01*
G01X959638Y612940D01*
G01X958708Y615730D01*
G01X956847Y620847D01*
G01X955917Y623638D01*
G01X954986Y625964D01*
G01X953591Y630150D01*
G01X952661Y632476D01*
G01X951730Y635267D01*
G01X950800Y637825D01*
G01X950335Y638988D01*
G01X944520Y638988D01*
G01X940276Y638814D01*
G01X939171Y638290D01*
G01X878469Y638290D01*
G01X874748Y638755D01*
G01X867538Y638988D01*
G01X859398Y638755D01*
G01X855676Y638290D01*
G01X851955Y637593D01*
G01X849629Y636895D01*
G01X847769Y636430D01*
G01X845443Y635732D01*
G01X842885Y634802D01*
G01X840792Y633871D01*
G01X837070Y632011D01*
G01X833814Y630150D01*
G01X832419Y629220D01*
G01X830558Y627824D01*
G01X828698Y626661D01*
G01X827535Y625731D01*
G01X825209Y623405D01*
G01X823813Y622243D01*
G01X822418Y620847D01*
G01X821255Y619452D01*
G01X819395Y617126D01*
G01X818697Y616196D01*
G01X819860Y614800D01*
G01X821720Y613405D01*
G01X825209Y610614D01*
G01X826372Y609916D01*
G01X827535Y609916D01*
G01X828233Y610846D01*
G01X829163Y612009D01*
G01X834280Y617126D01*
G01X838001Y619917D01*
G01X840094Y621312D01*
G01X844280Y623638D01*
G01X849862Y625731D01*
G01X852188Y626429D01*
G01X854281Y627127D01*
G01X857537Y627592D01*
G01X861258Y628057D01*
G01X865910Y628290D01*
G01X870561Y628057D01*
G01X874282Y627592D01*
G01X876841Y627127D01*
G01X880097Y626429D01*
G01X882888Y625499D01*
G01X885446Y624568D01*
G01X891493Y621545D01*
G01X893819Y620149D01*
G01X897075Y617824D01*
G01X898703Y616428D01*
G01X899866Y615498D01*
G01X901494Y614102D01*
G01X902889Y612242D01*
G01X905215Y609916D01*
G01X906378Y608055D01*
G01X907541Y606427D01*
G01X908471Y605032D01*
G01X909402Y603404D01*
G01X910332Y601543D01*
G01X911262Y599217D01*
G01X912192Y596659D01*
G01X912890Y594566D01*
G01X913820Y590380D01*
G01X914285Y586658D01*
G01X914518Y582239D01*
G01X914285Y576425D01*
G01X913820Y573169D01*
G01X912890Y568518D01*
G01X912192Y565959D01*
G01X911262Y563168D01*
G01X910332Y561075D01*
G01X908471Y557354D01*
G01X907308Y555493D01*
G01X906145Y553865D01*
G01X905448Y552702D01*
G01X904517Y551539D01*
G01X901726Y548283D01*
G01X900564Y547121D01*
G01X898238Y545260D01*
G01X897075Y544097D01*
G01X895214Y542701D01*
G01X893121Y541306D01*
G01X891261Y540143D01*
G01X889167Y538980D01*
G01X887307Y538050D01*
G01X885446Y537352D01*
G01X881260Y535957D01*
G01X878469Y535259D01*
G01X876143Y534562D01*
G01X871957Y534096D01*
G01X866607Y533864D01*
G01X860793Y534096D01*
G01X855211Y535027D01*
G01X853351Y535492D01*
G01X851257Y535957D01*
G01X848932Y536655D01*
G01X847071Y537352D01*
G01X845443Y538050D01*
G01X843583Y538980D01*
G01X840326Y540841D01*
G01X838233Y542004D01*
G01X836605Y543167D01*
G01X835442Y544097D01*
G01X834047Y545027D01*
G01X832651Y546190D01*
G01X828000Y550842D01*
G01X827069Y551539D01*
G01X825674Y550842D01*
G01X823581Y549214D01*
G01X821720Y547818D01*
G01X820557Y546888D01*
G01X819162Y545958D01*
G01X818581Y545492D01*
G01X809394Y545492D01*
G01X809394Y674805D01*
G01X1135000Y674805D01*
G01X1135000Y492000D01*
G01X809394Y492000D01*
G37*
G36*
G01X1078949Y535027D02*
G01X1075693Y534562D01*
G01X1072205Y534329D01*
G01X1069181Y534096D01*
G01X1068483Y534096D01*
G01X1066158Y534329D01*
G01X1063134Y534562D01*
G01X1059878Y535027D01*
G01X1056389Y535724D01*
G01X1052203Y537120D01*
G01X1049645Y538050D01*
G01X1047784Y538980D01*
G01X1046156Y539678D01*
G01X1045516Y540085D01*
G01X1045458Y540841D01*
G01X1046156Y542236D01*
G01X1048947Y545725D01*
G01X1050342Y547586D01*
G01X1055924Y554563D01*
G01X1057320Y556424D01*
G01X1061971Y562238D01*
G01X1062669Y563401D01*
G01X1067320Y569215D01*
G01X1068483Y570611D01*
G01X1068949Y571541D01*
G01X1063367Y571541D01*
G01X1056622Y571308D01*
G01X1054529Y569913D01*
G01X1048947Y562936D01*
G01X1047551Y561075D01*
G01X1040109Y551772D01*
G01X1037318Y548051D01*
G01X1036795Y547586D01*
G01X1036155Y547586D01*
G01X1034760Y548283D01*
G01X1033132Y549912D01*
G01X1031736Y551772D01*
G01X1030806Y552935D01*
G01X1029643Y554563D01*
G01X1028248Y556889D01*
G01X1027085Y558749D01*
G01X1026154Y560610D01*
G01X1025224Y562703D01*
G01X1023829Y566889D01*
G01X1023131Y569215D01*
G01X1022666Y571308D01*
G01X1022201Y574565D01*
G01X1021968Y580379D01*
G01X1022201Y587124D01*
G01X1022666Y590380D01*
G01X1023364Y593636D01*
G01X1024294Y596659D01*
G01X1025224Y599450D01*
G01X1026154Y601543D01*
G01X1027085Y603404D01*
G01X1028248Y605497D01*
G01X1031039Y609683D01*
G01X1032201Y611311D01*
G01X1033364Y612474D01*
G01X1034527Y613870D01*
G01X1035923Y615265D01*
G01X1037318Y616428D01*
G01X1038481Y617591D01*
G01X1040342Y618987D01*
G01X1042667Y620614D01*
G01X1044761Y622010D01*
G01X1046854Y623173D01*
G01X1048714Y624103D01*
G01X1050342Y624801D01*
G01X1052203Y625499D01*
G01X1056389Y626894D01*
G01X1058948Y627592D01*
G01X1061273Y628057D01*
G01X1067320Y628522D01*
G01X1068483Y628522D01*
G01X1071739Y628290D01*
G01X1076158Y627824D01*
G01X1078949Y627127D01*
G01X1081508Y626429D01*
G01X1084299Y625499D01*
G01X1086857Y624568D01*
G01X1090578Y622708D01*
G01X1092671Y621545D01*
G01X1094764Y620149D01*
G01X1098020Y617824D01*
G01X1099649Y616428D01*
G01X1104300Y611777D01*
G01X1105230Y610614D01*
G01X1106393Y608986D01*
G01X1107789Y606893D01*
G01X1108952Y605032D01*
G01X1109882Y603404D01*
G01X1110812Y601543D01*
G01X1111743Y599450D01*
G01X1113138Y595264D01*
G01X1113836Y592938D01*
G01X1114301Y590845D01*
G01X1114766Y587124D01*
G01X1114999Y582007D01*
G01X1114766Y575960D01*
G01X1114301Y572704D01*
G01X1113836Y570378D01*
G01X1113370Y568285D01*
G01X1112673Y565727D01*
G01X1111743Y563168D01*
G01X1110812Y561075D01*
G01X1108952Y557354D01*
G01X1107789Y555493D01*
G01X1106626Y553865D01*
G01X1105696Y552470D01*
G01X1102207Y548283D01*
G01X1101044Y547121D01*
G01X1098718Y545260D01*
G01X1097555Y544097D01*
G01X1096393Y543167D01*
G01X1094764Y542004D01*
G01X1092671Y540608D01*
G01X1090578Y539445D01*
G01X1086857Y537585D01*
G01X1084299Y536655D01*
G01X1081275Y535724D01*
G01X1078949Y535027D01*
G37*
G04 Text End*

G04 PolygonModel Start*
G36*
G01X808600Y395000D02*
G01X808600Y498000D01*
G01X812300Y501700D01*
G01X850800Y501700D01*
G01X853400Y499100D01*
G01X853400Y489400D01*
G01X826300Y462300D01*
G01X826300Y459300D01*
G01X818000Y451000D01*
G01X818000Y404400D01*
G01X808600Y395000D01*
G37*
G36*
G01X1027753Y499400D02*
G01X1130753Y499400D01*
G01X1134453Y495700D01*
G01X1134453Y429425D01*
G01X1121400Y441100D01*
G01X1122153Y454600D01*
G01X1095053Y481700D01*
G01X1092053Y481700D01*
G01X1083753Y490000D01*
G01X1037153Y490000D01*
G01X1027753Y499400D01*
G37*

G04 Rect Start*
G54D10*
G01X821400Y241100D02*
G01X821400Y441100D01*
G02X871400Y491100I50000J0D01*
G01X1071400Y491100D01*
G02X1121400Y441100I0J-50000D01*
G01X1121400Y241100D01*
G02X1071400Y191100I-50000J0D01*
G01X871400Y191100D01*
G02X821400Y241100I0J50000D01*
G36*
G01X863300Y255200D02*
G01X863300Y431300D01*
G02X883300Y451300I20000J0D01*
G01X1058800Y451300D01*
G02X1078800Y431300I0J-20000D01*
G01X1078800Y255200D01*
G02X1058800Y235200I-20000J0D01*
G01X883300Y235200D01*
G02X863300Y255200I0J20000D01*
G37*
G04 Rect End*

M02*

