G04 Layer: BottomSolderMaskLayer*
G04 EasyEDA Pro v2.2.45.4, 2026-05-14 13:08:14*
G04 Gerber Generator version 0.3*
G04 Scale: 100 percent, Rotated: No, Reflected: No*
G04 Dimensions in millimeters*
G04 Leading zeros omitted, absolute positions, 4 integers and 5 decimals*
G04 Generated by one-click*
%FSLAX45Y45*%
%MOMM*%
%ADD10C,1.626*%
%ADD11O,1.10002X1.90002*%
%ADD12C,0.5343*%
G75*


G04 Image Start*
G36*
G01X392577Y362974D02*
G01X387384Y361803D01*
G01X383772Y361237D01*
G01X96387Y361237D01*
G01X92775Y361803D01*
G01X90179Y362385D01*
G01X87583Y362966D01*
G01X85100Y364043D01*
G01X83815Y364291D01*
G01X82531Y364538D01*
G01X81976Y364975D01*
G01X81421Y365411D01*
G01X80326Y365880D01*
G01X79230Y366349D01*
G01X78327Y367166D01*
G01X77496Y367432D01*
G01X76665Y367698D01*
G01X75828Y368363D01*
G01X74992Y369028D01*
G01X74618Y369028D01*
G01X73297Y370271D01*
G01X72009Y371287D01*
G01X70721Y372303D01*
G01X68297Y374336D01*
G01X67330Y375500D01*
G01X66362Y376664D01*
G01X65346Y377952D01*
G01X64330Y379241D01*
G01X63089Y380562D01*
G01X63089Y380936D01*
G01X62424Y381773D01*
G01X61759Y382610D01*
G01X61493Y383441D01*
G01X61227Y384273D01*
G01X60410Y385176D01*
G01X59941Y386272D01*
G01X59473Y387368D01*
G01X59036Y387923D01*
G01X58600Y388478D01*
G01X58340Y389763D01*
G01X58081Y391048D01*
G01X57036Y393532D01*
G01X55866Y398726D01*
G01X55300Y402340D01*
G01X55300Y477435D01*
G01X69410Y477435D01*
G01X69410Y450362D01*
G01X69723Y450064D01*
G01X70037Y449766D01*
G01X70990Y448980D01*
G01X70990Y436135D01*
G01X71303Y435836D01*
G01X71617Y435538D01*
G01X72570Y434752D01*
G01X72570Y431392D01*
G01X72884Y431094D01*
G01X73197Y430795D01*
G01X74151Y430009D01*
G01X74151Y426649D01*
G01X74464Y426351D01*
G01X74777Y426053D01*
G01X75731Y425267D01*
G01X75731Y423488D01*
G01X76044Y423189D01*
G01X76358Y422891D01*
G01X77311Y422105D01*
G01X77311Y420326D01*
G01X77625Y420028D01*
G01X77938Y419729D01*
G01X78358Y419366D01*
G01X78779Y419003D01*
G01X79141Y418576D01*
G01X79504Y418148D01*
G01X79988Y417755D01*
G01X80472Y417362D01*
G01X80472Y415583D01*
G01X80785Y415285D01*
G01X81099Y414986D01*
G01X81519Y414624D01*
G01X81939Y414261D01*
G01X82302Y413833D01*
G01X82665Y413406D01*
G01X83092Y413043D01*
G01X83519Y412680D01*
G01X83882Y412252D01*
G01X84245Y411825D01*
G01X84672Y411462D01*
G01X85100Y411099D01*
G01X85462Y410671D01*
G01X85825Y410244D01*
G01X86253Y409881D01*
G01X86680Y409518D01*
G01X87043Y409091D01*
G01X87406Y408663D01*
G01X87833Y408300D01*
G01X88260Y407937D01*
G01X88623Y407510D01*
G01X88986Y407082D01*
G01X89413Y406719D01*
G01X89840Y406356D01*
G01X90203Y405929D01*
G01X90566Y405501D01*
G01X90993Y405138D01*
G01X91421Y404775D01*
G01X91784Y404348D01*
G01X92146Y403920D01*
G01X92574Y403557D01*
G01X93001Y403195D01*
G01X93394Y402711D01*
G01X93787Y402227D01*
G01X95565Y402227D01*
G01X95863Y401913D01*
G01X96162Y401600D01*
G01X96524Y401179D01*
G01X96887Y400759D01*
G01X97315Y400396D01*
G01X97742Y400033D01*
G01X98135Y399549D01*
G01X98528Y399065D01*
G01X100306Y399065D01*
G01X100604Y398751D01*
G01X100902Y398438D01*
G01X101265Y398017D01*
G01X101628Y397597D01*
G01X102055Y397234D01*
G01X102483Y396871D01*
G01X102876Y396387D01*
G01X103268Y395903D01*
G01X105047Y395903D01*
G01X105345Y395590D01*
G01X105643Y395276D01*
G01X106429Y394322D01*
G01X109787Y394322D01*
G01X110086Y394009D01*
G01X110384Y393695D01*
G01X111170Y392741D01*
G01X112948Y392741D01*
G01X113246Y392428D01*
G01X113545Y392114D01*
G01X114330Y391161D01*
G01X117726Y391161D01*
G01X118511Y390207D01*
G01X118810Y389893D01*
G01X119108Y389580D01*
G01X124010Y389580D01*
G01X124308Y389266D01*
G01X124607Y388953D01*
G01X125392Y387999D01*
G01X128751Y387999D01*
G01X129049Y387685D01*
G01X129049Y387685D01*
G01X129347Y387372D01*
G01X130133Y386418D01*
G01X218827Y386418D01*
G01X219181Y386773D01*
G01X219536Y387128D01*
G01X219536Y646551D01*
G01X238500Y646551D01*
G01X238500Y385547D01*
G01X238854Y385192D01*
G01X239209Y384837D01*
G01X239209Y384837D01*
G01X383176Y384837D01*
G01X383474Y385151D01*
G01X383772Y385464D01*
G01X384558Y386418D01*
G01X387916Y386418D01*
G01X388215Y386732D01*
G01X388513Y387045D01*
G01X389299Y387999D01*
G01X391114Y387999D01*
G01X391507Y388483D01*
G01X391899Y388967D01*
G01X392327Y389330D01*
G01X392754Y389693D01*
G01X393117Y390113D01*
G01X393480Y390533D01*
G01X393994Y391048D01*
G01X394414Y391411D01*
G01X394834Y391774D01*
G01X395197Y392201D01*
G01X395560Y392629D01*
G01X395987Y392991D01*
G01X396415Y393354D01*
G01X396777Y393782D01*
G01X397140Y394209D01*
G01X397624Y394602D01*
G01X398108Y394995D01*
G01X398108Y396774D01*
G01X398421Y397073D01*
G01X398735Y397371D01*
G01X399688Y398157D01*
G01X399688Y401517D01*
G01X400001Y401815D01*
G01X400315Y402114D01*
G01X401268Y402900D01*
G01X401268Y629162D01*
G01X400955Y629460D01*
G01X400641Y629758D01*
G01X399688Y630544D01*
G01X399688Y633941D01*
G01X398735Y634727D01*
G01X398421Y635025D01*
G01X398108Y635324D01*
G01X398108Y637103D01*
G01X397154Y637889D01*
G01X396640Y638403D01*
G01X396277Y638823D01*
G01X395915Y639244D01*
G01X395487Y639607D01*
G01X395060Y639970D01*
G01X394697Y640397D01*
G01X394334Y640825D01*
G01X393907Y641187D01*
G01X393480Y641550D01*
G01X393117Y641978D01*
G01X392754Y642405D01*
G01X392327Y642768D01*
G01X391899Y643131D01*
G01X391507Y643615D01*
G01X391114Y644099D01*
G01X389336Y644099D01*
G01X389037Y644413D01*
G01X388739Y644726D01*
G01X387953Y645680D01*
G01X384558Y645680D01*
G01X383772Y646634D01*
G01X383474Y646947D01*
G01X383176Y647261D01*
G01X239209Y647261D01*
G01X238854Y646906D01*
G01X238500Y646551D01*
G01X219536Y646551D01*
G01X219181Y646906D01*
G01X218827Y647261D01*
G01X106429Y647261D01*
G01X105643Y646307D01*
G01X105345Y645994D01*
G01X105047Y645680D01*
G01X101725Y645680D01*
G01X101427Y645367D01*
G01X101128Y645053D01*
G01X100342Y644099D01*
G01X96947Y644099D01*
G01X96162Y643145D01*
G01X95863Y642832D01*
G01X95565Y642518D01*
G01X93787Y642518D01*
G01X93394Y642034D01*
G01X93001Y641550D01*
G01X92581Y641187D01*
G01X92161Y640825D01*
G01X91647Y640310D01*
G01X91284Y639890D01*
G01X90921Y639470D01*
G01X90494Y639107D01*
G01X90066Y638744D01*
G01X89673Y638260D01*
G01X89281Y637776D01*
G01X87466Y637776D01*
G01X86680Y636822D01*
G01X86166Y636308D01*
G01X85746Y635945D01*
G01X85325Y635582D01*
G01X84963Y635154D01*
G01X84600Y634727D01*
G01X84172Y634364D01*
G01X83745Y634001D01*
G01X83382Y633574D01*
G01X83019Y633146D01*
G01X82536Y632753D01*
G01X82052Y632360D01*
G01X82052Y630581D01*
G01X81739Y630283D01*
G01X81425Y629984D01*
G01X80472Y629198D01*
G01X80472Y627419D01*
G01X80158Y627121D01*
G01X79845Y626823D01*
G01X78891Y626037D01*
G01X78891Y622677D01*
G01X78578Y622378D01*
G01X78265Y622080D01*
G01X77311Y621294D01*
G01X77311Y619515D01*
G01X76998Y619217D01*
G01X76684Y618918D01*
G01X75731Y618132D01*
G01X75731Y556280D01*
G01X76044Y555982D01*
G01X76358Y555684D01*
G01X77311Y554898D01*
G01X77311Y545214D01*
G01X77625Y544916D01*
G01X77938Y544618D01*
G01X78891Y543832D01*
G01X78891Y540472D01*
G01X79205Y540173D01*
G01X79518Y539875D01*
G01X80472Y539089D01*
G01X80472Y535729D01*
G01X80785Y535431D01*
G01X81099Y535132D01*
G01X82052Y534346D01*
G01X82052Y532567D01*
G01X82365Y532269D01*
G01X82679Y531971D01*
G01X83099Y531608D01*
G01X83519Y531245D01*
G01X83882Y530817D01*
G01X84245Y530390D01*
G01X84729Y529997D01*
G01X85213Y529604D01*
G01X85213Y527825D01*
G01X85526Y527526D01*
G01X85839Y527228D01*
G01X86260Y526865D01*
G01X86680Y526502D01*
G01X87043Y526075D01*
G01X87406Y525647D01*
G01X87833Y525284D01*
G01X88260Y524921D01*
G01X88623Y524494D01*
G01X88986Y524066D01*
G01X89413Y523703D01*
G01X89840Y523340D01*
G01X90203Y522913D01*
G01X90566Y522485D01*
G01X90993Y522122D01*
G01X91421Y521759D01*
G01X91784Y521332D01*
G01X92146Y520905D01*
G01X92625Y520516D01*
G01X93105Y520127D01*
G01X92984Y519813D01*
G01X92864Y519500D01*
G01X92337Y519218D01*
G01X91809Y518935D01*
G01X91258Y517905D01*
G01X90229Y517354D01*
G01X89678Y516325D01*
G01X88649Y515773D01*
G01X88098Y514744D01*
G01X87068Y514193D01*
G01X86517Y513163D01*
G01X85488Y512612D01*
G01X84937Y511582D01*
G01X83908Y511031D01*
G01X83357Y510001D01*
G01X82327Y509450D01*
G01X81777Y508420D01*
G01X80747Y507869D01*
G01X80196Y506839D01*
G01X79167Y506288D01*
G01X78878Y505749D01*
G01X78589Y505209D01*
G01X78299Y505209D01*
G01X77805Y504748D01*
G01X77311Y504288D01*
G01X77311Y502531D01*
G01X76998Y502233D01*
G01X76684Y501934D01*
G01X75731Y501148D01*
G01X75731Y499369D01*
G01X75417Y499071D01*
G01X75104Y498772D01*
G01X74151Y497986D01*
G01X74151Y496208D01*
G01X73837Y495909D01*
G01X73524Y495611D01*
G01X72570Y494825D01*
G01X72570Y491465D01*
G01X72257Y491166D01*
G01X71943Y490868D01*
G01X70990Y490082D01*
G01X70990Y478818D01*
G01X70677Y478520D01*
G01X70363Y478221D01*
G01X69410Y477435D01*
G01X55300Y477435D01*
G01X55300Y629758D01*
G01X55866Y633372D01*
G01X57036Y638566D01*
G01X58081Y641050D01*
G01X58340Y642335D01*
G01X58600Y643620D01*
G01X59036Y644175D01*
G01X59473Y644730D01*
G01X59941Y645826D01*
G01X60410Y646922D01*
G01X61227Y647826D01*
G01X61493Y648657D01*
G01X61759Y649488D01*
G01X62424Y650325D01*
G01X63089Y651162D01*
G01X63089Y651536D01*
G01X64330Y652857D01*
G01X65346Y654146D01*
G01X66362Y655435D01*
G01X67330Y656598D01*
G01X68297Y657762D01*
G01X70721Y659795D01*
G01X72009Y660811D01*
G01X73297Y661827D01*
G01X74618Y663070D01*
G01X74992Y663070D01*
G01X75828Y663735D01*
G01X76665Y664400D01*
G01X77496Y664666D01*
G01X78327Y664932D01*
G01X79230Y665749D01*
G01X81367Y666663D01*
G01X82616Y667566D01*
G01X84149Y667914D01*
G01X85682Y668262D01*
G01X86389Y668627D01*
G01X87095Y668993D01*
G01X89484Y669549D01*
G01X91872Y670105D01*
G01X95710Y670836D01*
G01X381966Y670900D01*
G01X383772Y670745D01*
G01X385578Y670521D01*
G01X387384Y670298D01*
G01X392577Y669124D01*
G01X395060Y668080D01*
G01X396344Y667820D01*
G01X397629Y667560D01*
G01X398183Y667124D01*
G01X398738Y666687D01*
G01X399834Y666218D01*
G01X400930Y665749D01*
G01X401833Y664932D01*
G01X402664Y664666D01*
G01X403495Y664400D01*
G01X404332Y663735D01*
G01X405168Y663070D01*
G01X405542Y663070D01*
G01X406848Y661827D01*
G01X408735Y660360D01*
G01X410621Y658892D01*
G01X411758Y657754D01*
G01X412895Y656617D01*
G01X414362Y654730D01*
G01X415829Y652843D01*
G01X417071Y651536D01*
G01X417071Y651162D01*
G01X417736Y650325D01*
G01X418401Y649488D01*
G01X418667Y648657D01*
G01X418933Y647826D01*
G01X419750Y646922D01*
G01X420218Y645826D01*
G01X420687Y644730D01*
G01X421123Y644175D01*
G01X421560Y643620D01*
G01X421819Y642335D01*
G01X422079Y641050D01*
G01X423156Y638566D01*
G01X423820Y635404D01*
G01X424160Y633833D01*
G01X424501Y632261D01*
G01X424750Y629203D01*
G01X425000Y626145D01*
G01X424917Y513904D01*
G01X424833Y401662D01*
G01X424468Y399742D01*
G01X424104Y397823D01*
G01X423548Y395433D01*
G01X422992Y393044D01*
G01X422626Y392337D01*
G01X422261Y391630D01*
G01X421913Y390097D01*
G01X421565Y388563D01*
G01X420664Y387313D01*
G01X419750Y385176D01*
G01X418933Y384273D01*
G01X418667Y383441D01*
G01X418401Y382610D01*
G01X417736Y381773D01*
G01X417071Y380936D01*
G01X417071Y380562D01*
G01X415829Y379255D01*
G01X414362Y377368D01*
G01X412895Y375481D01*
G01X411718Y374301D01*
G01X410541Y373120D01*
G01X409273Y372147D01*
G01X408005Y371174D01*
G01X407284Y370609D01*
G01X406564Y370045D01*
G01X405558Y369028D01*
G01X405168Y369028D01*
G01X404332Y368363D01*
G01X403495Y367698D01*
G01X402664Y367432D01*
G01X401833Y367166D01*
G01X400930Y366349D01*
G01X399834Y365880D01*
G01X398738Y365411D01*
G01X398183Y364975D01*
G01X397629Y364538D01*
G01X396344Y364278D01*
G01X395060Y364019D01*
G01X392577Y362974D01*
G37*
G36*
G01X379752Y416567D02*
G01X319884Y416426D01*
G01X310712Y416934D01*
G01X308638Y417267D01*
G01X306564Y417601D01*
G01X302275Y418263D01*
G01X300582Y418812D01*
G01X298889Y419362D01*
G01X297197Y419612D01*
G01X295506Y419863D01*
G01X294601Y420393D01*
G01X293696Y420924D01*
G01X292681Y421190D01*
G01X291665Y421457D01*
G01X290874Y421964D01*
G01X290084Y422471D01*
G01X287827Y423077D01*
G01X287221Y423497D01*
G01X286615Y423917D01*
G01X284673Y424602D01*
G01X284105Y425133D01*
G01X283537Y425664D01*
G01X282634Y426150D01*
G01X281731Y426635D01*
G01X280151Y427714D01*
G01X279474Y428264D01*
G01X278797Y428814D01*
G01X277894Y429274D01*
G01X276991Y429733D01*
G01X274056Y432525D01*
G01X268525Y437953D01*
G01X268525Y438318D01*
G01X266945Y440210D01*
G01X266945Y440802D01*
G01X265364Y442694D01*
G01X265364Y443266D01*
G01X264576Y444257D01*
G01X263788Y445249D01*
G01X263784Y445724D01*
G01X262480Y447507D01*
G01X261937Y450217D01*
G01X261496Y450982D01*
G01X261054Y451746D01*
G01X260712Y453240D01*
G01X260369Y454734D01*
G01X259816Y455912D01*
G01X259263Y457090D01*
G01X259033Y460655D01*
G01X258803Y464219D01*
G01X258472Y466807D01*
G01X258254Y468510D01*
G01X299890Y468510D01*
G01X300132Y466590D01*
G01X300374Y464671D01*
G01X300879Y463090D01*
G01X301719Y461961D01*
G01X302560Y460832D01*
G01X304307Y458995D01*
G01X305097Y458427D01*
G01X305887Y457858D01*
G01X307903Y457284D01*
G01X309066Y456663D01*
G01X310230Y456042D01*
G01X312686Y455880D01*
G01X315143Y455718D01*
G01X320081Y455073D01*
G01X320081Y455073D01*
G01X337364Y455073D01*
G01X338960Y456475D01*
G01X338960Y585360D01*
G01X338709Y585912D01*
G01X338457Y586464D01*
G01X337493Y586932D01*
G01X300894Y586962D01*
G01X300456Y586642D01*
G01X300018Y586321D01*
G01X299890Y468510D01*
G01X258254Y468510D01*
G01X258140Y469395D01*
G01X258140Y596523D01*
G01X258831Y601755D01*
G01X259055Y603296D01*
G01X259279Y604838D01*
G01X259815Y605897D01*
G01X260352Y606956D01*
G01X260606Y607902D01*
G01X260861Y608848D01*
G01X261368Y609479D01*
G01X261875Y610111D01*
G01X262284Y611004D01*
G01X262693Y611898D01*
G01X263295Y612649D01*
G01X263897Y613399D01*
G01X268638Y618264D01*
G01X270212Y619364D01*
G01X270952Y620047D01*
G01X272321Y620900D01*
G01X273690Y621752D01*
G01X275420Y622362D01*
G01X276248Y622924D01*
G01X277075Y623486D01*
G01X278189Y623634D01*
G01X279302Y623782D01*
G01X280719Y624358D01*
G01X282137Y624934D01*
G01X285320Y625139D01*
G01X288504Y625345D01*
G01X379031Y625302D01*
G01X379934Y625080D01*
G01X380217Y624851D01*
G01X380499Y624622D01*
G01X380499Y417187D01*
G01X380126Y416877D01*
G01X379752Y416567D01*
G37*
G36*
G01X169838Y433844D02*
G01X138035Y433844D01*
G01X137249Y434798D01*
G01X136951Y435111D01*
G01X136652Y435425D01*
G01X131713Y435425D01*
G01X130928Y436379D01*
G01X130629Y436692D01*
G01X130331Y437006D01*
G01X128553Y437006D01*
G01X127767Y437959D01*
G01X127469Y438273D01*
G01X127171Y438587D01*
G01X125392Y438587D01*
G01X124999Y439071D01*
G01X124607Y439554D01*
G01X124186Y439917D01*
G01X123766Y440280D01*
G01X123453Y440579D01*
G01X123139Y440877D01*
G01X123139Y442656D01*
G01X122186Y443442D01*
G01X121872Y443741D01*
G01X121559Y444039D01*
G01X121559Y445818D01*
G01X120606Y446604D01*
G01X120292Y446902D01*
G01X119979Y447201D01*
G01X119979Y477435D01*
G01X120932Y478221D01*
G01X121245Y478520D01*
G01X121559Y478818D01*
G01X121559Y482178D01*
G01X122512Y482964D01*
G01X122826Y483262D01*
G01X123139Y483561D01*
G01X123139Y485339D01*
G01X123623Y485732D01*
G01X124107Y486125D01*
G01X124470Y486553D01*
G01X124832Y486980D01*
G01X125260Y487343D01*
G01X125687Y487706D01*
G01X126050Y488127D01*
G01X126413Y488547D01*
G01X126711Y488861D01*
G01X127009Y489174D01*
G01X128751Y489174D01*
G01X129049Y489488D01*
G01X129347Y489801D01*
G01X129710Y490222D01*
G01X130073Y490642D01*
G01X130500Y491005D01*
G01X130928Y491368D01*
G01X131321Y491852D01*
G01X131713Y492336D01*
G01X138269Y492336D01*
G01X139055Y493290D01*
G01X139353Y493603D01*
G01X139652Y493917D01*
G01X168258Y493917D01*
G01X168556Y493603D01*
G01X168854Y493290D01*
G01X169217Y492869D01*
G01X169580Y492449D01*
G01X170064Y492056D01*
G01X170548Y491663D01*
G01X170548Y434554D01*
G01X170193Y434199D01*
G01X169838Y433844D01*
G37*
G36*
G01X169838Y541343D02*
G01X138035Y541343D01*
G01X137642Y541827D01*
G01X137249Y542311D01*
G01X136822Y542674D01*
G01X136394Y543037D01*
G01X136031Y543457D01*
G01X135669Y543878D01*
G01X135370Y544191D01*
G01X135072Y544505D01*
G01X133330Y544505D01*
G01X133032Y544818D01*
G01X132734Y545132D01*
G01X132371Y545552D01*
G01X132008Y545973D01*
G01X131581Y546336D01*
G01X131153Y546698D01*
G01X130791Y547126D01*
G01X130428Y547553D01*
G01X129944Y547946D01*
G01X129460Y548339D01*
G01X129460Y550118D01*
G01X129147Y550417D01*
G01X128833Y550715D01*
G01X127880Y551501D01*
G01X127880Y554898D01*
G01X126927Y555684D01*
G01X126613Y555982D01*
G01X126300Y556280D01*
G01X126300Y599125D01*
G01X126655Y599480D01*
G01X127009Y599835D01*
G01X169838Y599835D01*
G01X170193Y599480D01*
G01X170548Y599125D01*
G01X170548Y542053D01*
G01X170193Y541698D01*
G01X169838Y541343D01*
G37*
G04 Image End*

G04 Pad Start*
G54D10*
G01X115000Y985000D03*
G01X1385643Y982250D03*
G01X115450Y113457D03*
G54D11*
G01X535994Y150003D03*
G01X535994Y530012D03*
G01X1400000Y530012D03*
G01X1400000Y150003D03*
G04 Pad End*

M02*

